<svg width="27" height="28" viewBox="0 0 27 28" fill="none" xmlns="http://www.w3.org/2000/svg">
<g clip-path="url(#clip0)">
<path d="M8.48489 3.99345L7.47887 1.99371C6.74254 2.36524 6.03642 2.80726 5.37842 3.30524L6.73358 5.08676C7.2808 4.67048 7.87054 4.30231 8.48489 3.99345Z" fill="url(#paint0_linear)"/>
<path d="M3.07014 18.0621L0.985352 18.8757C1.28414 19.6433 1.6579 20.3886 2.09433 21.0903L3.99335 19.9074C3.63078 19.3222 3.31857 18.7022 3.07014 18.0621Z" fill="url(#paint1_linear)"/>
<path d="M5.21044 6.48332L3.55425 4.97932C3.00032 5.59032 2.49899 6.25616 2.06592 6.9578L3.96942 8.13392C4.33199 7.54754 4.74939 6.99249 5.21044 6.48332Z" fill="url(#paint2_linear)"/>
<path d="M2.30987 14.0235L0.0717773 14.0291C0.0740154 14.8572 0.15123 15.6864 0.30342 16.4932L2.50235 16.0803C2.3759 15.4066 2.31211 14.7151 2.30987 14.0235Z" fill="url(#paint3_linear)"/>
<path d="M12.4316 2.86096L12.2212 0.631813C11.3976 0.710146 10.5784 0.864575 9.78613 1.09174L10.405 3.24255C11.063 3.05455 11.7456 2.92474 12.4316 2.86096Z" fill="url(#paint4_linear)"/>
<path d="M17.1315 1.06938C16.3381 0.846686 15.519 0.696733 14.6953 0.625114L14.4995 2.85426C15.1844 2.91469 15.8681 3.04002 16.5283 3.22466L17.1315 1.06938Z" fill="url(#paint5_linear)"/>
<path d="M24.8923 6.88623C24.4548 6.18794 23.9501 5.52547 23.3905 4.91782L21.7422 6.43301C22.2088 6.93994 22.6296 7.49275 22.9944 8.07466L24.8923 6.88623Z" fill="url(#paint6_linear)"/>
<path d="M24.4942 11.8984L26.6931 11.4799C26.5376 10.6674 26.3071 9.86732 26.0071 9.10077L23.9224 9.91655C24.173 10.5555 24.3655 11.2225 24.4942 11.8984Z" fill="url(#paint7_linear)"/>
<path d="M21.5562 3.25486C20.8949 2.75912 20.1854 2.32157 19.4457 1.95564L18.4531 3.96209C19.0686 4.26648 19.6606 4.63017 20.2111 5.04421L21.5562 3.25486Z" fill="url(#paint8_linear)"/>
<path d="M3.05317 9.98257L0.963909 9.17686C0.667361 9.94676 0.441314 10.7491 0.29248 11.5638L2.49365 11.9666C2.61786 11.2896 2.80586 10.6204 3.05317 9.98257Z" fill="url(#paint9_linear)"/>
<path d="M3.59082 23.0631C4.14811 23.673 4.7647 24.2325 5.4227 24.7283L6.77003 22.9423C6.2217 22.5282 5.70694 22.0593 5.24142 21.5513L3.59082 23.0631Z" fill="url(#paint10_linear)"/>
<path d="M20.2495 22.9277L21.6002 24.7126C22.256 24.2147 22.8726 23.654 23.4287 23.0441L21.7737 21.5357C21.3104 22.0448 20.7978 22.5126 20.2495 22.9277Z" fill="url(#paint11_linear)"/>
<path d="M24.6909 14C24.6909 14.6927 24.6271 15.3831 24.5029 16.0568L26.7041 16.4641C26.8529 15.6584 26.929 14.8281 26.929 14V13.9485L24.6909 14Z" fill="url(#paint12_linear)"/>
<path d="M23.0186 19.8873L24.9209 21.0668C25.3562 20.3651 25.7278 19.6198 26.0254 18.8499L23.9395 18.0397C23.6911 18.6821 23.3811 19.302 23.0186 19.8873Z" fill="url(#paint13_linear)"/>
<path d="M12.4788 25.1445L12.2773 27.3737C12.6813 27.4095 13.0887 27.4285 13.5005 27.4285C13.9223 27.4285 14.3397 27.4095 14.7516 27.3714L14.5445 25.1412C13.8653 25.2061 13.1592 25.2072 12.4788 25.1445Z" fill="url(#paint14_linear)"/>
<path d="M7.5293 26.0309C8.26787 26.3979 9.04561 26.6989 9.84125 26.9239L10.45 24.7697C9.78753 24.5828 9.13961 24.3333 8.52525 24.0266L7.5293 26.0309Z" fill="url(#paint15_linear)"/>
<path d="M16.5732 24.7641L17.1865 26.916C17.9799 26.6899 18.7565 26.3878 19.4951 26.0185L18.4958 24.0165C17.8803 24.3243 17.2335 24.5761 16.5732 24.7641Z" fill="url(#paint16_linear)"/>
<path d="M13.5003 16.2381C14.7364 16.2381 15.7384 15.236 15.7384 14C15.7384 12.7639 14.7364 11.7619 13.5003 11.7619C12.2642 11.7619 11.2622 12.7639 11.2622 14C11.2622 15.236 12.2642 16.2381 13.5003 16.2381Z" fill="url(#paint17_linear)"/>
<path d="M22.6386 14L22.2928 13.4248C22.1429 13.1741 18.5518 7.28571 13.5004 7.28571C8.44907 7.28571 4.85804 13.1741 4.70809 13.4248L4.3623 14L4.70809 14.5763C4.85804 14.8258 8.44907 20.7143 13.5004 20.7143C18.5518 20.7143 22.1429 14.8258 22.2928 14.5763L22.6386 14ZM13.5004 18.4762C10.4992 18.4762 7.95109 15.3272 7.01221 14C7.95109 12.6739 10.4992 9.5238 13.5004 9.5238C16.5017 9.5238 19.0498 12.6739 19.9887 14C19.0498 15.3272 16.5017 18.4762 13.5004 18.4762Z" fill="url(#paint18_linear)"/>
</g>
<defs>
<linearGradient id="paint0_linear" x1="8.48775" y1="1.95986" x2="5.32818" y2="5.07174" gradientUnits="userSpaceOnUse">
<stop stop-color="#D903FC"/>
<stop offset="1" stop-color="#0EA0DE"/>
</linearGradient>
<linearGradient id="paint1_linear" x1="3.99612" y1="18.029" x2="0.903551" y2="21.0415" gradientUnits="userSpaceOnUse">
<stop stop-color="#D903FC"/>
<stop offset="1" stop-color="#0EA0DE"/>
</linearGradient>
<linearGradient id="paint2_linear" x1="5.21334" y1="4.9448" x2="1.99135" y2="8.09434" gradientUnits="userSpaceOnUse">
<stop stop-color="#D903FC"/>
<stop offset="1" stop-color="#0EA0DE"/>
</linearGradient>
<linearGradient id="paint3_linear" x1="2.50459" y1="13.9965" x2="-0.0169726" y2="16.43" gradientUnits="userSpaceOnUse">
<stop stop-color="#D903FC"/>
<stop offset="1" stop-color="#0EA0DE"/>
</linearGradient>
<linearGradient id="paint4_linear" x1="12.434" y1="0.603241" x2="9.76685" y2="3.25353" gradientUnits="userSpaceOnUse">
<stop stop-color="#D903FC"/>
<stop offset="1" stop-color="#0EA0DE"/>
</linearGradient>
<linearGradient id="paint5_linear" x1="17.1339" y1="0.596665" x2="14.4782" y2="3.23348" gradientUnits="userSpaceOnUse">
<stop stop-color="#D903FC"/>
<stop offset="1" stop-color="#0EA0DE"/>
</linearGradient>
<linearGradient id="paint6_linear" x1="24.8952" y1="4.88328" x2="21.6709" y2="8.0385" gradientUnits="userSpaceOnUse">
<stop stop-color="#D903FC"/>
<stop offset="1" stop-color="#0EA0DE"/>
</linearGradient>
<linearGradient id="paint7_linear" x1="26.6957" y1="9.07015" x2="23.8388" y2="11.8449" gradientUnits="userSpaceOnUse">
<stop stop-color="#D903FC"/>
<stop offset="1" stop-color="#0EA0DE"/>
</linearGradient>
<linearGradient id="paint8_linear" x1="21.5591" y1="1.92184" x2="18.4041" y2="5.03037" gradientUnits="userSpaceOnUse">
<stop stop-color="#D903FC"/>
<stop offset="1" stop-color="#0EA0DE"/>
</linearGradient>
<linearGradient id="paint9_linear" x1="3.05571" y1="9.14633" x2="0.206878" y2="11.9109" gradientUnits="userSpaceOnUse">
<stop stop-color="#D903FC"/>
<stop offset="1" stop-color="#0EA0DE"/>
</linearGradient>
<linearGradient id="paint10_linear" x1="6.77296" y1="21.5165" x2="3.52785" y2="24.7011" gradientUnits="userSpaceOnUse">
<stop stop-color="#D903FC"/>
<stop offset="1" stop-color="#0EA0DE"/>
</linearGradient>
<linearGradient id="paint11_linear" x1="23.4317" y1="21.5009" x2="20.1865" y2="24.6854" gradientUnits="userSpaceOnUse">
<stop stop-color="#D903FC"/>
<stop offset="1" stop-color="#0EA0DE"/>
</linearGradient>
<linearGradient id="paint12_linear" x1="26.9313" y1="13.921" x2="24.3652" y2="16.3478" gradientUnits="userSpaceOnUse">
<stop stop-color="#D903FC"/>
<stop offset="1" stop-color="#0EA0DE"/>
</linearGradient>
<linearGradient id="paint13_linear" x1="26.0282" y1="18.0066" x2="22.9368" y2="21.018" gradientUnits="userSpaceOnUse">
<stop stop-color="#D903FC"/>
<stop offset="1" stop-color="#0EA0DE"/>
</linearGradient>
<linearGradient id="paint14_linear" x1="14.7538" y1="25.1161" x2="12.4211" y2="27.5906" gradientUnits="userSpaceOnUse">
<stop stop-color="#D903FC"/>
<stop offset="1" stop-color="#0EA0DE"/>
</linearGradient>
<linearGradient id="paint15_linear" x1="10.4527" y1="23.9949" x2="7.49303" y2="26.9209" gradientUnits="userSpaceOnUse">
<stop stop-color="#D903FC"/>
<stop offset="1" stop-color="#0EA0DE"/>
</linearGradient>
<linearGradient id="paint16_linear" x1="19.4978" y1="23.9848" x2="16.5358" y2="26.9119" gradientUnits="userSpaceOnUse">
<stop stop-color="#D903FC"/>
<stop offset="1" stop-color="#0EA0DE"/>
</linearGradient>
<linearGradient id="paint17_linear" x1="15.7425" y1="11.7129" x2="11.1704" y2="16.1965" gradientUnits="userSpaceOnUse">
<stop stop-color="#D903FC"/>
<stop offset="1" stop-color="#0EA0DE"/>
</linearGradient>
<linearGradient id="paint18_linear" x1="22.6554" y1="7.13874" x2="9.48886" y2="24.7116" gradientUnits="userSpaceOnUse">
<stop stop-color="#D903FC"/>
<stop offset="1" stop-color="#0EA0DE"/>
</linearGradient>
<clipPath id="clip0">
<rect width="26.8571" height="26.8571" fill="white" transform="translate(0.0712891 0.571426)"/>
</clipPath>
</defs>
</svg>
