<svg width="35" height="35" viewBox="0 0 35 35" fill="none" xmlns="http://www.w3.org/2000/svg">
<path d="M29.2144 3.57143V8.14308H26.9289V3.57143H24.6431V10.4286H29.2144V13.8571H31.5002V3.57143H29.2144Z" fill="url(#paint0_linear)"/>
<path d="M16.6429 7C16.6429 5.10708 18.1786 3.57143 20.0715 3.57143C21.9651 3.57143 23.5011 5.10708 23.5001 7C23.5001 7.9456 23.1161 8.80274 22.4955 9.42297L19.8747 11.5717H23.4997V13.8571H16.6426V11.5717L20.8789 7.80708C21.0044 7.68091 21.2142 7.41074 21.2142 7C21.2142 6.36845 20.703 5.85725 20.0715 5.85725C19.4406 5.85725 18.9284 6.36845 18.9284 7H16.6429Z" fill="url(#paint1_linear)"/>
<path d="M16.6428 26.429V28.7145H10.9284V18.4288C10.9284 17.165 9.905 16.143 8.6426 16.143H6.35712V12.7144C6.35712 8.92651 9.42843 5.85725 13.2143 5.85725H14.357V3.57143H13.2143C8.16706 3.57143 4.07129 7.66308 4.07129 12.7144V25.2859C4.07129 26.547 5.09472 27.5714 6.35712 27.5714H8.6426V28.7145C8.6426 29.9769 9.66603 31 10.9284 31H18.9283V26.429H16.6428ZM6.35712 25.2859V18.4288H8.6426V25.2859H6.35712Z" fill="url(#paint2_linear)"/>
<path d="M29.1747 19.229H25.7433V17.9989H30.7427V18.8225L27.9248 25.4869H26.4932L29.1747 19.229Z" fill="url(#paint3_linear)"/>
<path fill-rule="evenodd" clip-rule="evenodd" d="M30.7427 18.8225L27.9248 25.4869H26.4932L29.1747 19.229H25.7433V17.9989H30.7427V18.8225ZM28.0523 19.9422H24.9858V17.2857H31.5001V18.9593L28.4386 26.2H25.3708L28.0523 19.9422Z" fill="url(#paint4_linear)"/>
<defs>
<linearGradient id="paint0_linear" x1="31.5065" y1="3.45886" x2="21.8809" y2="9.75177" gradientUnits="userSpaceOnUse">
<stop stop-color="#D903FC"/>
<stop offset="1" stop-color="#0EA0DE"/>
</linearGradient>
<linearGradient id="paint1_linear" x1="23.5064" y1="3.45886" x2="13.8805" y2="9.75221" gradientUnits="userSpaceOnUse">
<stop stop-color="#D903FC"/>
<stop offset="1" stop-color="#0EA0DE"/>
</linearGradient>
<linearGradient id="paint2_linear" x1="18.942" y1="3.27125" x2="-4.27615" y2="15.6043" gradientUnits="userSpaceOnUse">
<stop stop-color="#D903FC"/>
<stop offset="1" stop-color="#0EA0DE"/>
</linearGradient>
<linearGradient id="paint3_linear" x1="31.5061" y1="17.1882" x2="22.8822" y2="23.3683" gradientUnits="userSpaceOnUse">
<stop stop-color="#D903FC"/>
<stop offset="1" stop-color="#0EA0DE"/>
</linearGradient>
<linearGradient id="paint4_linear" x1="31.5061" y1="17.1882" x2="22.8822" y2="23.3683" gradientUnits="userSpaceOnUse">
<stop stop-color="#D903FC"/>
<stop offset="1" stop-color="#0EA0DE"/>
</linearGradient>
</defs>
</svg>
