<svg width="29" height="28" viewBox="0 0 29 28" fill="none" xmlns="http://www.w3.org/2000/svg">
<path fill-rule="evenodd" clip-rule="evenodd" d="M23.8332 5.58829H22.6665V4.91162C22.6655 4.37088 22.5391 3.83773 22.2975 3.35401C22.0558 2.87029 21.7053 2.44914 21.2735 2.12361C20.8417 1.79808 20.3404 1.57703 19.8089 1.47779C19.2773 1.37854 18.73 1.40382 18.2098 1.55162L4.8515 5.36662C4.65451 5.42818 4.47737 5.54091 4.33817 5.69329C3.5772 5.87865 2.90039 6.3139 2.41603 6.92939C1.93167 7.54489 1.66775 8.30506 1.6665 9.08829V23.0883C1.6665 24.0165 2.03525 24.9068 2.69163 25.5632C3.34801 26.2195 4.23825 26.5883 5.1665 26.5883H23.8332C24.7614 26.5883 25.6517 26.2195 26.308 25.5632C26.9644 24.9068 27.3332 24.0165 27.3332 23.0883V9.08829C27.3332 8.16003 26.9644 7.26979 26.308 6.61341C25.6517 5.95703 24.7614 5.58829 23.8332 5.58829ZM18.8515 3.79162C19.0285 3.74185 19.2147 3.73462 19.395 3.7705C19.5753 3.80638 19.7446 3.88437 19.8891 3.99811C20.0335 4.11184 20.149 4.2581 20.2262 4.42497C20.3034 4.59183 20.34 4.77457 20.3332 4.95829V5.63495H12.5865L18.8515 3.79162ZM24.9998 17.255H21.4998C21.1904 17.255 20.8937 17.132 20.6749 16.9132C20.4561 16.6945 20.3332 16.3977 20.3332 16.0883C20.3332 15.7789 20.4561 15.4821 20.6749 15.2633C20.8937 15.0445 21.1904 14.9216 21.4998 14.9216H24.9998V17.255ZM24.9998 12.5883H21.6748C20.8347 12.5668 20.0135 12.8396 19.3531 13.3593C18.6927 13.8791 18.2347 14.6133 18.0582 15.435C17.962 15.9412 17.9788 16.4623 18.1073 16.9613C18.2358 17.4603 18.4729 17.9247 18.8017 18.3215C19.1304 18.7182 19.5427 19.0375 20.0092 19.2565C20.4756 19.4755 20.9846 19.5888 21.4998 19.5883H24.9998V23.0883C24.9998 23.3977 24.8769 23.6944 24.6581 23.9132C24.4393 24.132 24.1426 24.255 23.8332 24.255H5.1665C4.85708 24.255 4.56034 24.132 4.34155 23.9132C4.12275 23.6944 3.99984 23.3977 3.99984 23.0883V9.08829C3.99984 8.77887 4.12275 8.48212 4.34155 8.26333C4.56034 8.04454 4.85708 7.92162 5.1665 7.92162H23.8332C24.1426 7.92162 24.4393 8.04454 24.6581 8.26333C24.8769 8.48212 24.9998 8.77887 24.9998 9.08829V12.5883Z" fill="url(#paint0_linear)"/>
<defs>
<linearGradient id="paint0_linear" x1="27.3568" y1="1.14287" x2="1.64251" y2="26.8572" gradientUnits="userSpaceOnUse">
<stop stop-color="#D903FC"/>
<stop offset="1" stop-color="#0EA0DE"/>
</linearGradient>
</defs>
</svg>
