<svg width="22" height="17" viewBox="0 0 22 17" fill="none" xmlns="http://www.w3.org/2000/svg">
<g clip-path="url(#clip0)">
<path d="M0 0H22V16.5H0V0Z" fill="#74ACDF"/>
<path d="M0 5.5H22V11H0V5.5Z" fill="white"/>
<path d="M10.8945 8.29283L11.835 10.3388C11.835 10.3388 11.8515 10.3784 11.8779 10.3685C11.9043 10.3553 11.8878 10.319 11.8878 10.319L11.1057 8.20703L10.8945 8.29283ZM11.0826 9.00233C11.0694 9.31253 11.2608 9.48413 11.2377 9.76133C11.2113 10.0418 11.3631 10.1969 11.4027 10.3058C11.4357 10.4147 11.3598 10.4774 11.3928 10.4939C11.4258 10.5104 11.4918 10.4246 11.472 10.2695C11.4489 10.1177 11.3334 10.0715 11.3598 9.73163C11.3862 9.39173 11.2212 9.31253 11.2608 9.00563" fill="#F6B40E"/>
<path d="M11.0826 9.00233C11.0694 9.31253 11.2608 9.48413 11.2377 9.76133C11.2113 10.0418 11.3631 10.1969 11.4027 10.3058C11.4357 10.4147 11.3598 10.4774 11.3928 10.4939C11.4258 10.5104 11.4918 10.4246 11.472 10.2695C11.4489 10.1177 11.3334 10.0715 11.3598 9.73163C11.3862 9.39173 11.2212 9.31253 11.2608 9.00563M10.8945 8.29283L11.835 10.3388C11.835 10.3388 11.8515 10.3784 11.8779 10.3685C11.9043 10.3553 11.8878 10.319 11.8878 10.319L11.1057 8.20703L10.8945 8.29283Z" stroke="#85340A" stroke-width="0.2904"/>
<path d="M11.14 9.05486C11.1565 9.35186 11.3248 9.48386 11.2918 9.75776C11.3644 9.54326 11.1895 9.37496 11.1994 9.05816L11.14 9.05486ZM10.9453 8.27276L11.5888 9.67856L11.0509 8.22986" fill="#85340A"/>
<path d="M10.9998 9.16778C11.5067 9.16778 11.9177 8.75686 11.9177 8.24997C11.9177 7.74307 11.5067 7.33215 10.9998 7.33215C10.493 7.33215 10.082 7.74307 10.082 8.24997C10.082 8.75686 10.493 9.16778 10.9998 9.16778Z" fill="#F6B40E" stroke="#85340A" stroke-width="0.385"/>
<path d="M11.3134 8.05408C11.2515 8.05408 11.1896 8.08158 11.1553 8.13658C11.224 8.20189 11.3821 8.20533 11.4887 8.1297C11.4662 8.1058 11.439 8.08676 11.4089 8.07376C11.3787 8.06075 11.3462 8.05405 11.3134 8.05408V8.05408ZM11.3134 8.06783C11.3718 8.06783 11.4303 8.09533 11.4371 8.12283C11.3684 8.20189 11.255 8.19158 11.1828 8.13658C11.1966 8.11468 11.216 8.0968 11.2389 8.08473C11.2618 8.07266 11.2875 8.06683 11.3134 8.06783V8.06783Z" fill="#843511"/>
<path d="M10.8629 8.37722C10.8518 8.37833 10.8413 8.38223 10.8321 8.38855C10.823 8.39487 10.8157 8.40341 10.8108 8.41335C10.8059 8.4233 10.8036 8.43433 10.8042 8.4454C10.8047 8.45647 10.8081 8.46722 10.8139 8.47664C10.8198 8.48606 10.8279 8.49384 10.8376 8.49924C10.8473 8.50464 10.8582 8.50748 10.8692 8.50751C10.8803 8.50754 10.8912 8.50474 10.9009 8.49939C10.9107 8.49403 10.9188 8.48629 10.9247 8.4769C10.9474 8.49097 10.9737 8.49814 11.0004 8.49753H11.0072C11.0351 8.49905 11.0627 8.49184 11.0863 8.4769C11.0926 8.48562 11.101 8.49263 11.1108 8.49731C11.1205 8.50199 11.1312 8.50418 11.142 8.5037C11.1528 8.50322 11.1633 8.50008 11.1725 8.49456C11.1818 8.48904 11.1895 8.48131 11.1951 8.47206C11.2006 8.46281 11.2038 8.45233 11.2043 8.44156C11.2048 8.43078 11.2027 8.42005 11.198 8.41032C11.1934 8.40058 11.1864 8.39215 11.1777 8.38577C11.169 8.3794 11.1588 8.37528 11.1482 8.37378C11.1654 8.38409 11.1757 8.39784 11.1757 8.41847C11.1757 8.43909 11.1585 8.45972 11.1344 8.45972C11.1235 8.45972 11.113 8.45537 11.1052 8.44763C11.0975 8.4399 11.0932 8.42941 11.0932 8.41847C11.085 8.43544 11.0724 8.44985 11.0566 8.46015C11.0409 8.47045 11.0226 8.47625 11.0038 8.4769C10.9856 8.47564 10.968 8.46957 10.9529 8.4593C10.9378 8.44903 10.9257 8.43494 10.9179 8.41847C10.9179 8.42418 10.9167 8.42985 10.9144 8.43509C10.9121 8.44033 10.9088 8.44504 10.9046 8.44892C10.9004 8.4528 10.8954 8.45576 10.89 8.45762C10.8846 8.45948 10.8789 8.46019 10.8732 8.45972C10.8525 8.45972 10.8319 8.43909 10.8319 8.41847C10.8319 8.39784 10.8422 8.38409 10.8594 8.37722H10.8629ZM10.9316 8.56628C10.8594 8.56628 10.8285 8.62815 10.7666 8.6694C10.801 8.65565 10.8319 8.62815 10.88 8.60065C10.9282 8.57315 10.9729 8.60753 11.0004 8.60753C11.0279 8.60753 11.0691 8.57315 11.1207 8.60065C11.1688 8.62815 11.1997 8.65565 11.2341 8.6694C11.1688 8.62815 11.1413 8.56628 11.0691 8.56628C11.0451 8.5687 11.0217 8.5757 11.0004 8.5869C10.9792 8.5745 10.9559 8.56633 10.9316 8.56284V8.56628Z" fill="#85340A"/>
<path d="M10.904 8.64871C10.8765 8.64871 10.8421 8.65559 10.7871 8.66933C10.9143 8.64184 10.9418 8.68652 11.0002 8.68652C11.0552 8.68652 11.0827 8.64184 11.2099 8.66933C11.0724 8.62809 11.0415 8.65559 11.0002 8.65559C10.9727 8.65559 10.9521 8.64527 10.904 8.64871Z" fill="#85340A"/>
<path d="M10.7941 8.66948H10.7666C10.9144 8.68667 10.8457 8.77261 11.0004 8.77261C11.155 8.77261 11.0863 8.68667 11.2341 8.66948C11.0794 8.65573 11.1275 8.74854 11.0004 8.74854C10.88 8.74854 10.9179 8.66948 10.7941 8.66948ZM11.1275 8.89979C11.1275 8.86606 11.1141 8.83371 11.0903 8.80986C11.0664 8.78601 11.0341 8.77261 11.0004 8.77261C10.9666 8.77261 10.9343 8.78601 10.9104 8.80986C10.8866 8.83371 10.8732 8.86606 10.8732 8.89979C10.8799 8.8711 10.8961 8.84552 10.9192 8.82721C10.9423 8.8089 10.9709 8.79894 11.0004 8.79894C11.0298 8.79894 11.0584 8.8089 11.0815 8.82721C11.1046 8.84552 11.1208 8.8711 11.1275 8.89979Z" fill="#85340A"/>
<path d="M10.4297 8.05408C10.5912 7.91314 10.7975 7.88908 10.9109 7.99564C10.9376 8.03101 10.9552 8.07228 10.9625 8.11595C10.9762 8.19501 10.9522 8.28095 10.8903 8.37033L10.9178 8.38408C10.9718 8.28556 10.9912 8.17178 10.9728 8.06095C10.9683 8.03404 10.9614 8.00758 10.9522 7.98189C10.7975 7.8547 10.5844 7.84439 10.4297 8.05064V8.05408Z" fill="#85340A"/>
<path d="M10.6837 8.0094C10.7765 8.0094 10.7972 8.03346 10.8384 8.06784C10.8797 8.10221 10.9037 8.09534 10.9072 8.10221C10.9175 8.10908 10.9072 8.12971 10.8968 8.12283C10.8797 8.11596 10.8522 8.10221 10.8109 8.06784C10.7697 8.03346 10.725 8.03346 10.6837 8.03346C10.5565 8.03346 10.4878 8.13658 10.4706 8.12971C10.4603 8.12283 10.5428 8.0094 10.6837 8.0094Z" fill="#85340A"/>
<path d="M10.6864 8.18812C10.7225 8.18812 10.7517 8.15888 10.7517 8.12281C10.7517 8.08674 10.7225 8.0575 10.6864 8.0575C10.6503 8.0575 10.6211 8.08674 10.6211 8.12281C10.6211 8.15888 10.6503 8.18812 10.6864 8.18812Z" fill="#85340A"/>
<path d="M10.5146 8.16402C10.635 8.25683 10.7553 8.24996 10.824 8.20871C10.8928 8.16402 10.8928 8.15027 10.879 8.15027C10.8653 8.15027 10.8515 8.16402 10.7965 8.19496C10.7381 8.22246 10.6556 8.22246 10.5146 8.16402V8.16402Z" fill="#85340A"/>
</g>
<defs>
<clipPath id="clip0">
<rect width="22" height="16.5" fill="white"/>
</clipPath>
</defs>
</svg>
