<svg width="24" height="24" viewBox="0 0 24 24" fill="none" xmlns="http://www.w3.org/2000/svg">
<g clip-path="url(#clip0)">
<path fill-rule="evenodd" clip-rule="evenodd" d="M16.406 24H7.594C6.59645 24.0011 5.60848 23.8053 4.68666 23.4241C3.76484 23.0428 2.92727 22.4835 2.22189 21.7781C1.51651 21.0727 0.957181 20.2352 0.575919 19.3133C0.194658 18.3915 -0.00104833 17.4036 4.22314e-06 16.406V7.594C4.22314e-06 3.394 3.394 0 7.594 0H16.406C20.606 0 24 3.394 24 7.594V16.406C24 20.606 20.606 24 16.406 24Z" fill="url(#paint0_linear)"/>
<path opacity="0.2" d="M19.056 12.926L19.049 12.912L19.048 12.91L19.035 12.868V12.866L19.034 12.865L19.033 12.864V12.862H19.032L19.031 12.859C18.8796 12.3522 18.5793 11.9028 18.169 11.569L18.131 11.539L18.114 11.527L18.102 11.518L18.097 11.514L18.086 11.506L18.081 11.501L18.069 11.493L18.064 11.489L18.052 11.479L18.045 11.476L18.033 11.466L18.027 11.463L18.014 11.454L18.007 11.451L17.999 11.439L17.993 11.434L17.979 11.425L17.972 11.421L17.959 11.411L17.952 11.407L17.939 11.398L17.932 11.394L17.918 11.384L17.911 11.379L17.896 11.369L17.889 11.365L17.874 11.355L17.867 11.351L17.852 11.341L17.846 11.337L17.831 11.327L17.822 11.323L17.807 11.314L17.799 11.31L17.783 11.302L17.775 11.297L17.759 11.287L17.751 11.283L17.734 11.273L17.726 11.269L17.709 11.259L17.701 11.255L17.684 11.245L17.675 11.24L17.657 11.23L17.649 11.226L17.631 11.216L17.619 11.21V11.209L17.592 11.194C17.2231 11.0045 16.8248 10.8787 16.414 10.822C16.529 10.698 16.634 10.566 16.729 10.426L16.745 10.403L16.753 10.392L16.762 10.377L16.767 10.37L16.777 10.355L16.781 10.348L16.791 10.333L16.795 10.326L16.805 10.311L16.809 10.304L16.819 10.289L16.823 10.282L16.831 10.268L16.836 10.261L16.844 10.247L16.848 10.24L16.856 10.226L16.86 10.22L16.868 10.205L16.872 10.199L16.879 10.185L16.882 10.179L16.889 10.165L16.893 10.159L16.9 10.145L16.904 10.139L16.911 10.126L16.915 10.12L16.923 10.107L16.926 10.101L16.933 10.089L16.936 10.082L16.943 10.07L16.946 10.064L16.952 10.052L16.955 10.047L16.961 10.035L16.964 10.029L16.97 10.017L16.973 10.011L16.978 10L16.981 9.99401L16.986 9.98301L16.988 9.97701L16.994 9.96501L16.996 9.96001L17.002 9.94601L17.01 9.92901L17.026 9.89001H17.028C17.2045 9.45426 17.2456 8.97547 17.146 8.51601V8.51401L17.145 8.51201H17.144V8.51001L17.143 8.50901V8.50801L17.141 8.50701V8.50501C17.1383 8.49218 17.135 8.47949 17.131 8.46701V8.46301L17.13 8.46101V8.46201L17.125 8.45201C17.1214 8.43384 17.1171 8.41583 17.112 8.39801L17.097 8.34401L17.091 8.33201L17.089 8.33001L17.079 8.29301L17.078 8.29201L17.077 8.29001L17.076 8.28801H17.075V8.28601L17.074 8.28501C16.9394 7.83428 16.6721 7.43456 16.307 7.13801V7.13701L16.274 7.11101L16.26 7.10101L16.248 7.09201L16.243 7.08801L16.233 7.08001L16.228 7.07601L16.218 7.06801L16.213 7.06401L16.203 7.05701L16.198 7.05301L16.186 7.04501L16.181 7.04001L16.17 7.03201L16.164 7.02801L16.153 7.02001L16.147 7.01601L16.135 7.00801L16.129 7.00401L16.117 6.99601L16.111 6.99201L16.098 6.98501L16.092 6.98101L16.079 6.97401L16.073 6.97001L16.06 6.96201L16.054 6.95901L16.041 6.95101L16.035 6.94701L16.022 6.93901L16.015 6.93501L16.002 6.92601L15.996 6.92201L15.981 6.91401L15.975 6.91101L15.961 6.90301L15.954 6.89801L15.939 6.89001L15.932 6.88501L15.918 6.87701L15.911 6.87201L15.896 6.86201L15.888 6.85901L15.873 6.84901L15.865 6.84501L15.849 6.83701L15.841 6.83201L15.825 6.82401L15.813 6.81901V6.81701L15.789 6.80501C15.084 6.43801 14.189 6.32801 13.289 6.55901L13.054 6.61901L12.461 4.31201L11.088 4.66401L11.678 6.96301L10.58 7.24401L9.99 4.95301L8.616 5.30501L9.206 7.60301L6.375 8.33201L6.752 9.79601L7.892 9.50301C8.07327 9.45622 8.26571 9.48335 8.42699 9.57843C8.58826 9.67351 8.70517 9.82875 8.752 10.01V10.012L10.336 16.172C10.3673 16.2932 10.3492 16.4219 10.2856 16.5297C10.222 16.6376 10.1182 16.7157 9.997 16.747L8.997 17.004L9.057 18.745L11.885 18.019L12.483 20.312L13.855 19.959L13.265 17.66L14.363 17.379L14.954 19.677L16.326 19.324L15.733 17.016L16.304 16.868C17.319 16.608 18.14 16.012 18.637 15.27L18.654 15.245L18.663 15.233L18.673 15.216L18.679 15.207L18.689 15.19L18.695 15.182L18.705 15.165L18.71 15.156L18.72 15.14L18.724 15.131L18.734 15.115L18.737 15.107L18.747 15.09L18.751 15.082L18.76 15.066L18.764 15.058L18.773 15.042L18.777 15.034L18.787 15.019L18.79 15.011L18.8 14.996L18.804 14.988L18.812 14.973L18.816 14.965L18.824 14.951L18.828 14.943L18.836 14.929L18.84 14.921L18.848 14.907L18.851 14.899L18.858 14.886L18.861 14.879L18.868 14.865L18.872 14.859L18.879 14.845L18.883 14.839L18.89 14.825L18.893 14.819L18.9 14.805L18.904 14.799L18.911 14.785L18.915 14.779L18.921 14.765L18.924 14.759L18.93 14.746L18.933 14.74L18.939 14.725L18.948 14.706C18.954 14.692 18.961 14.678 18.966 14.663V14.662C19.166 14.172 19.212 13.633 19.101 13.116V13.115L19.1 13.114L19.099 13.113V13.112L19.098 13.11L19.097 13.108H19.096C19.0926 13.0937 19.0893 13.0794 19.086 13.065V13.062L19.085 13.06V13.059L19.084 13.058V13.057L19.082 13.055V13.053L19.081 13.052L19.08 13.051V13.05L19.079 13.049V13.048L19.076 13.043L19.06 12.983L19.056 12.926ZM10.99 8.80401C11.224 8.74401 12.193 8.50001 12.512 8.41701C13.02 8.28701 13.52 8.33701 13.911 8.52601L13.924 8.53201L13.93 8.53401L13.938 8.53901L13.942 8.54101L13.95 8.54501L13.954 8.54701L13.962 8.55201L13.966 8.55401L13.974 8.55801L13.978 8.56001L13.986 8.56401L13.99 8.56701L13.998 8.57101L14.002 8.57301L14.01 8.57701L14.014 8.57901L14.022 8.58401L14.026 8.58601L14.034 8.59001L14.038 8.59201L14.045 8.59701L14.049 8.59901L14.056 8.60401L14.06 8.60601L14.067 8.61101L14.071 8.61301L14.078 8.61701L14.082 8.61901L14.088 8.62301L14.092 8.62501L14.098 8.62901L14.102 8.63101L14.109 8.63501L14.113 8.63701L14.119 8.64101L14.122 8.64301L14.128 8.64701L14.131 8.64901L14.137 8.65201L14.139 8.65401L14.146 8.65801L14.148 8.66001L14.154 8.66301L14.157 8.66501L14.162 8.66901L14.164 8.67101L14.171 8.67501L14.179 8.68001C14.186 8.68401 14.191 8.69001 14.198 8.69301C14.398 8.84301 14.545 9.05401 14.618 9.29401L14.619 9.29701L14.625 9.31701L14.626 9.31801L14.63 9.32501L14.638 9.35301L14.643 9.38401L14.647 9.39101V9.39201C14.6479 9.39884 14.6496 9.40555 14.652 9.41201L14.654 9.41601C14.705 9.66101 14.678 9.91601 14.576 10.144L14.567 10.165L14.562 10.175L14.558 10.181V10.184L14.555 10.19L14.554 10.194L14.55 10.2L14.549 10.203L14.545 10.21V10.213L14.54 10.219V10.223L14.536 10.229L14.535 10.233L14.531 10.239L14.53 10.242L14.526 10.249L14.524 10.253L14.52 10.259L14.518 10.263L14.514 10.269L14.512 10.273L14.508 10.28L14.506 10.284L14.501 10.291L14.499 10.295L14.494 10.302L14.492 10.306L14.487 10.313L14.485 10.317L14.48 10.324L14.478 10.328L14.473 10.334L14.471 10.339L14.466 10.345L14.464 10.349L14.459 10.356L14.457 10.36L14.452 10.367L14.45 10.371L14.444 10.379L14.441 10.383L14.435 10.39L14.433 10.395L14.427 10.402L14.425 10.406L14.419 10.414L14.415 10.419L14.407 10.43C14.154 10.784 13.74 11.07 13.233 11.2C12.913 11.282 11.947 11.535 11.713 11.595L10.99 8.80401ZM16.357 13.528L16.36 13.534V13.536L16.366 13.557V13.559L16.367 13.561L16.368 13.562C16.422 13.832 16.383 14.113 16.258 14.358L16.245 14.381L16.239 14.391L16.235 14.399L16.233 14.403L16.229 14.41L16.227 14.414L16.223 14.42L16.221 14.424L16.216 14.431L16.214 14.435L16.209 14.442L16.207 14.446L16.202 14.453L16.2 14.457L16.195 14.464L16.193 14.468L16.188 14.475L16.186 14.479L16.181 14.486L16.178 14.49L16.174 14.497L16.171 14.501L16.166 14.507L16.164 14.512L16.159 14.518L16.157 14.522L16.151 14.53L16.149 14.534L16.143 14.542L16.141 14.546L16.136 14.554L16.134 14.558L16.128 14.567L16.126 14.571L16.121 14.58L16.118 14.584L16.113 14.593L16.109 14.597L16.103 14.607L16.1 14.611L16.093 14.621L16.09 14.625L16.083 14.635L16.08 14.639L16.074 14.649L16.07 14.653L16.064 14.662L16.059 14.668L16.049 14.68C15.742 15.072 15.247 15.394 14.646 15.548C14.267 15.646 13.123 15.946 12.844 16.017L12.064 12.984C12.343 12.912 13.491 12.624 13.87 12.526C14.47 12.372 15.06 12.416 15.516 12.61L15.531 12.617L15.539 12.62L15.549 12.624L15.555 12.626L15.565 12.631L15.57 12.632L15.58 12.637L15.584 12.638L15.594 12.643L15.598 12.645L15.608 12.65L15.612 12.652L15.622 12.657L15.626 12.659L15.636 12.664L15.64 12.666L15.648 12.67L15.652 12.672L15.66 12.677L15.664 12.679L15.672 12.683L15.676 12.685L15.684 12.69L15.688 12.692L15.696 12.696L15.7 12.698L15.708 12.702L15.712 12.705L15.72 12.709L15.724 12.711L15.732 12.715L15.736 12.717L15.744 12.722L15.748 12.724L15.755 12.729L15.759 12.731L15.766 12.736L15.77 12.738L15.777 12.743L15.781 12.745L15.788 12.75L15.792 12.752L15.799 12.757L15.803 12.759L15.809 12.763L15.813 12.765L15.82 12.77L15.83 12.777L15.851 12.791C16.08 12.945 16.249 13.172 16.331 13.435L16.334 13.44L16.341 13.46V13.462L16.345 13.468L16.353 13.499C16.359 13.501 16.359 13.513 16.357 13.529V13.528Z" fill="black"/>
<path d="M18.681 12.613L18.674 12.6L18.673 12.598L18.66 12.556V12.553H18.659L18.658 12.551V12.55L18.657 12.549L18.656 12.547C18.5046 12.0402 18.2043 11.5907 17.794 11.257L17.756 11.227L17.739 11.215L17.727 11.205L17.722 11.201L17.711 11.193L17.706 11.189L17.694 11.181L17.689 11.176L17.677 11.167L17.67 11.163L17.658 11.154L17.652 11.15L17.639 11.142L17.632 11.138L17.624 11.126L17.618 11.122L17.604 11.112L17.597 11.108L17.584 11.099L17.577 11.094L17.564 11.086L17.557 11.081L17.543 11.071L17.536 11.066L17.521 11.057L17.514 11.052L17.499 11.043L17.492 11.038L17.477 11.029L17.471 11.024L17.456 11.015L17.447 11.011L17.432 11.001L17.424 10.998L17.408 10.989L17.4 10.985L17.384 10.975L17.376 10.971L17.359 10.961L17.351 10.957L17.334 10.947L17.326 10.942L17.309 10.932L17.3 10.927L17.282 10.918L17.274 10.913L17.256 10.904L17.244 10.898V10.896L17.217 10.882C16.8481 10.6925 16.4498 10.5667 16.039 10.51C16.154 10.386 16.259 10.253 16.354 10.113L16.37 10.091L16.378 10.079L16.387 10.064L16.392 10.057L16.402 10.042L16.406 10.035L16.416 10.02L16.42 10.013L16.43 9.998L16.434 9.992L16.444 9.977L16.448 9.97L16.456 9.955L16.461 9.948L16.469 9.934L16.473 9.928L16.481 9.913L16.485 9.907L16.493 9.893L16.497 9.886L16.504 9.873L16.507 9.866L16.514 9.853L16.518 9.846L16.525 9.832L16.529 9.826L16.536 9.813L16.54 9.807L16.548 9.794L16.551 9.788L16.558 9.776L16.561 9.77L16.568 9.758L16.571 9.752L16.577 9.74L16.58 9.734L16.586 9.722L16.589 9.716L16.595 9.704L16.598 9.699L16.603 9.687L16.606 9.682L16.611 9.67L16.613 9.664L16.619 9.653L16.621 9.647L16.627 9.634L16.635 9.617L16.651 9.577H16.653C16.8295 9.14125 16.8706 8.66246 16.771 8.203V8.202L16.77 8.2L16.769 8.199V8.197H16.768V8.195H16.766V8.193C16.7633 8.18017 16.76 8.16748 16.756 8.155V8.15L16.755 8.149L16.75 8.139C16.7464 8.12083 16.7421 8.10281 16.737 8.085C16.733 8.067 16.727 8.049 16.722 8.032L16.716 8.019L16.714 8.017L16.704 7.98H16.703L16.702 7.978V7.977L16.701 7.976L16.7 7.975V7.973H16.699C16.5646 7.5219 16.2973 7.12182 15.932 6.825C15.922 6.815 15.91 6.807 15.899 6.799L15.885 6.788L15.873 6.78L15.868 6.775L15.858 6.768L15.853 6.763L15.843 6.756L15.838 6.751L15.828 6.745L15.823 6.74L15.811 6.732L15.806 6.728L15.795 6.72L15.789 6.715L15.778 6.707L15.772 6.704L15.76 6.696L15.754 6.692L15.742 6.684L15.736 6.68L15.723 6.672L15.717 6.669L15.704 6.661L15.698 6.657L15.685 6.65L15.679 6.646L15.666 6.638L15.66 6.635L15.647 6.626L15.64 6.622L15.627 6.614L15.621 6.61L15.606 6.602L15.6 6.598L15.586 6.59L15.579 6.585L15.564 6.577L15.557 6.572L15.543 6.564L15.536 6.559L15.521 6.55L15.513 6.546L15.498 6.536L15.49 6.533L15.474 6.524L15.466 6.52L15.45 6.511L15.438 6.506V6.505L15.414 6.492C14.709 6.126 13.814 6.016 12.914 6.247L12.679 6.307L12.086 4L10.713 4.352L11.303 6.65L10.205 6.932L9.615 4.64L8.241 4.992L8.831 7.29L6 8.02L6.377 9.483L7.517 9.19C7.60683 9.16685 7.70033 9.16163 7.79218 9.17463C7.88402 9.18763 7.9724 9.21861 8.05227 9.26579C8.13214 9.31297 8.20192 9.37542 8.25764 9.44958C8.31336 9.52374 8.35392 9.60816 8.377 9.698V9.699L9.961 15.86C9.99199 15.9811 9.97371 16.1095 9.91016 16.2171C9.84661 16.3247 9.74298 16.4027 9.622 16.434L8.622 16.691L8.682 18.433L11.51 17.706L12.108 20L13.48 19.647L12.89 17.347L13.988 17.067L14.579 19.365L15.951 19.012L15.358 16.704L15.929 16.556C16.944 16.295 17.765 15.699 18.262 14.958L18.279 14.933L18.288 14.921L18.298 14.903L18.304 14.895L18.314 14.878L18.32 14.869L18.33 14.852L18.335 14.844L18.345 14.827L18.349 14.819L18.359 14.802L18.362 14.794L18.372 14.778L18.376 14.769L18.385 14.753L18.389 14.745L18.398 14.729L18.402 14.721L18.412 14.706L18.415 14.698L18.425 14.683L18.429 14.675L18.437 14.661L18.441 14.653L18.449 14.638L18.453 14.63L18.461 14.616L18.465 14.609L18.473 14.594L18.476 14.587L18.483 14.573L18.486 14.567L18.493 14.553L18.497 14.547L18.504 14.533L18.508 14.526L18.515 14.513L18.518 14.506L18.525 14.492L18.529 14.486L18.536 14.472L18.54 14.466L18.546 14.453L18.549 14.447L18.555 14.433L18.558 14.428L18.564 14.413L18.573 14.393L18.591 14.351V14.349C18.791 13.859 18.837 13.321 18.726 12.804V12.803L18.725 12.801H18.724V12.799L18.723 12.798V12.797L18.722 12.796L18.721 12.795C18.7176 12.781 18.7143 12.767 18.711 12.753V12.749L18.71 12.747L18.709 12.745L18.707 12.743V12.741L18.706 12.74L18.705 12.738L18.704 12.736V12.735L18.701 12.731L18.685 12.67L18.681 12.613ZM10.614 8.491C10.848 8.431 11.817 8.188 12.136 8.105C12.644 7.975 13.144 8.025 13.535 8.213L13.548 8.219L13.554 8.222L13.562 8.226L13.566 8.228L13.574 8.233L13.578 8.235L13.586 8.239L13.59 8.241L13.598 8.245L13.602 8.248L13.61 8.252L13.614 8.254L13.622 8.258L13.626 8.26L13.634 8.265L13.638 8.267L13.646 8.271L13.65 8.273L13.658 8.278L13.662 8.28L13.669 8.285L13.673 8.287L13.68 8.292L13.684 8.294L13.691 8.299L13.695 8.301L13.702 8.305L13.706 8.307L13.712 8.31L13.716 8.313L13.722 8.316L13.726 8.318L13.733 8.322L13.737 8.324L13.743 8.328L13.746 8.331L13.752 8.335L13.755 8.336L13.761 8.34L13.763 8.342L13.77 8.345L13.772 8.347L13.778 8.351L13.781 8.352L13.786 8.357L13.788 8.358L13.795 8.362L13.803 8.367C13.81 8.371 13.815 8.377 13.822 8.38C14.022 8.531 14.169 8.742 14.242 8.982L14.243 8.985C14.245 8.991 14.248 8.998 14.249 9.005H14.25L14.254 9.012L14.262 9.041L14.267 9.071L14.271 9.079C14.2719 9.08617 14.2735 9.09322 14.276 9.1L14.278 9.103C14.329 9.348 14.302 9.603 14.2 9.832L14.191 9.852L14.186 9.862L14.182 9.869V9.872L14.179 9.878L14.178 9.881L14.174 9.887L14.173 9.891L14.169 9.897V9.901L14.164 9.907V9.91L14.16 9.917L14.159 9.92L14.155 9.926L14.154 9.93L14.15 9.936L14.148 9.94L14.144 9.946L14.142 9.95L14.138 9.957L14.136 9.961L14.132 9.967L14.13 9.971L14.125 9.978L14.123 9.982L14.118 9.989L14.116 9.993L14.111 10L14.109 10.004L14.104 10.011L14.102 10.015L14.097 10.022L14.095 10.026L14.09 10.033L14.088 10.037L14.083 10.044L14.081 10.048L14.076 10.055L14.074 10.059L14.068 10.066L14.065 10.07L14.059 10.078L14.057 10.082L14.051 10.09L14.049 10.094L14.043 10.101L14.039 10.106L14.031 10.118C13.778 10.472 13.364 10.758 12.857 10.888C12.537 10.969 11.571 11.223 11.337 11.283L10.614 8.491ZM15.981 13.215L15.984 13.222V13.223L15.99 13.245V13.247L15.991 13.248L15.992 13.249C16.046 13.519 16.007 13.801 15.882 14.046L15.869 14.068L15.863 14.078L15.859 14.087L15.857 14.091L15.853 14.097L15.851 14.101L15.847 14.107L15.845 14.111L15.84 14.118L15.838 14.122L15.833 14.129L15.831 14.133L15.826 14.14L15.824 14.144L15.819 14.151L15.817 14.155L15.812 14.162L15.81 14.166L15.805 14.173L15.802 14.177L15.798 14.184L15.795 14.188L15.79 14.195L15.788 14.199L15.783 14.206L15.781 14.21L15.775 14.218L15.773 14.222L15.767 14.229L15.765 14.233L15.76 14.242L15.758 14.246L15.752 14.254L15.75 14.258L15.745 14.268L15.742 14.272L15.737 14.28L15.733 14.285L15.727 14.295L15.724 14.299L15.717 14.308L15.714 14.313L15.707 14.322L15.704 14.326L15.698 14.336L15.694 14.34L15.688 14.35L15.683 14.355L15.673 14.368C15.366 14.76 14.871 15.082 14.27 15.236C13.891 15.334 12.747 15.633 12.468 15.704L11.688 12.672C11.967 12.6 13.115 12.312 13.494 12.214C14.094 12.06 14.684 12.104 15.14 12.298L15.155 12.304L15.163 12.308L15.173 12.312L15.179 12.313L15.189 12.318L15.194 12.32L15.204 12.324L15.208 12.326L15.218 12.331L15.222 12.333L15.232 12.338L15.236 12.34L15.246 12.344L15.25 12.347L15.26 12.351L15.264 12.354L15.272 12.358L15.276 12.36L15.284 12.364L15.288 12.366L15.296 12.371L15.3 12.373L15.308 12.377L15.312 12.379L15.32 12.383L15.324 12.386L15.332 12.39L15.336 12.392L15.344 12.396L15.348 12.398L15.356 12.403L15.36 12.405L15.368 12.409L15.372 12.411L15.379 12.416L15.383 12.418L15.39 12.423L15.394 12.426L15.401 12.43L15.405 12.433L15.412 12.438L15.416 12.44L15.423 12.445L15.427 12.447L15.433 12.451L15.437 12.453L15.444 12.458L15.454 12.464L15.475 12.478C15.704 12.633 15.873 12.86 15.955 13.123L15.958 13.127L15.965 13.147V13.149L15.969 13.156L15.977 13.187C15.983 13.188 15.983 13.2 15.981 13.216V13.215Z" fill="white"/>
</g>
<defs>
<linearGradient id="paint0_linear" x1="2.22408" y1="2.22408" x2="21.7759" y2="21.7759" gradientUnits="userSpaceOnUse">
<stop stop-color="#F9A038"/>
<stop offset="1" stop-color="#F47C36"/>
</linearGradient>
<clipPath id="clip0">
<rect width="24" height="24" fill="white"/>
</clipPath>
</defs>
</svg>
