<svg width="24" height="24" viewBox="0 0 24 24" fill="none" xmlns="http://www.w3.org/2000/svg">
<path fill-rule="evenodd" clip-rule="evenodd" d="M16.4062 24H7.59375C3.39375 24 0 20.6063 0 16.4062V7.59375C0 3.39375 3.39375 0 7.59375 0H16.4062C20.6063 0 24 3.39375 24 7.59375V16.4062C24 20.6063 20.6063 24 16.4062 24Z" fill="url(#paint0_linear)"/>
<g opacity="0.2">
<path opacity="0.2" fill-rule="evenodd" clip-rule="evenodd" d="M4.48047 16.9312C4.74297 16.1624 4.98672 15.4499 5.24922 14.7187C5.26797 14.6437 5.41797 14.5874 5.49297 14.5874C5.92422 14.5687 6.37422 14.5874 6.80547 14.5874C9.67422 14.5874 12.5242 14.5874 15.393 14.5874C15.618 14.5874 15.7305 14.5124 15.7867 14.3062C16.2555 12.8999 16.7617 11.4937 17.2492 10.0874C17.268 10.0124 17.2867 9.93742 17.3242 9.82492C13.8555 9.82492 10.4055 9.82492 6.91797 9.82492C7.18047 9.03742 7.44297 8.30617 7.68672 7.57492C7.70547 7.51867 7.81797 7.46242 7.89297 7.46242C8.15547 7.44367 8.41797 7.46242 8.68047 7.46242C12.2055 7.46242 15.7305 7.48117 19.2367 7.44367C20.2867 7.42492 21.4117 8.24992 20.9617 9.78742C20.6242 10.9312 20.193 12.0562 19.7992 13.1999C19.668 13.5937 19.5367 13.9687 19.4055 14.3624C18.918 15.7124 17.9242 16.5374 16.5555 16.9124C16.4242 16.9499 16.293 16.9499 16.1617 16.9499C12.3555 16.9499 8.56797 16.9499 4.76172 16.9499C4.68672 16.9312 4.59297 16.9312 4.48047 16.9312Z" fill="black"/>
<path opacity="0.2" fill-rule="evenodd" clip-rule="evenodd" d="M11.0621 11.0811C10.7996 11.8311 10.5371 12.5248 10.2746 13.2186C10.2559 13.2748 10.1434 13.3123 10.0871 13.3123C8.11836 13.3123 6.14961 13.3123 4.18086 13.3123C4.16211 13.3123 4.12461 13.2936 4.06836 13.2748C4.31211 12.5811 4.55586 11.9061 4.81836 11.2311C4.83711 11.1748 4.94961 11.0998 5.00586 11.0998C7.01211 11.0811 8.99961 11.0811 11.0621 11.0811Z" fill="black"/>
</g>
<path fill-rule="evenodd" clip-rule="evenodd" d="M4.10547 16.5562C4.36797 15.7874 4.61172 15.0749 4.87422 14.3437C4.89297 14.2687 5.04297 14.2124 5.11797 14.2124C5.54922 14.1937 5.99922 14.2124 6.43047 14.2124C9.29922 14.2124 12.1492 14.2124 15.018 14.2124C15.243 14.2124 15.3555 14.1374 15.4117 13.9312C15.8805 12.5249 16.3867 11.1187 16.8742 9.71242C16.893 9.63742 16.9117 9.56242 16.9492 9.44992C13.4805 9.44992 10.0305 9.44992 6.54297 9.44992C6.80547 8.66242 7.06797 7.93117 7.31172 7.19992C7.33047 7.14367 7.44297 7.08742 7.51797 7.08742C7.78047 7.06867 8.04297 7.08742 8.30547 7.08742C11.8305 7.08742 15.3555 7.10617 18.8617 7.06867C19.9117 7.04992 21.0367 7.87492 20.5867 9.41242C20.2492 10.5562 19.818 11.6812 19.4242 12.8249C19.293 13.2187 19.1617 13.5937 19.0305 13.9874C18.543 15.3374 17.5492 16.1624 16.1805 16.5374C16.0492 16.5749 15.918 16.5749 15.7867 16.5749C11.9805 16.5749 8.19297 16.5749 4.38672 16.5749C4.31172 16.5562 4.21797 16.5562 4.10547 16.5562Z" fill="white"/>
<path fill-rule="evenodd" clip-rule="evenodd" d="M10.6871 10.7061C10.4246 11.4561 10.1621 12.1498 9.89961 12.8436C9.88086 12.8998 9.76836 12.9373 9.71211 12.9373C7.74336 12.9373 5.77461 12.9373 3.80586 12.9373C3.78711 12.9373 3.74961 12.9186 3.69336 12.8998C3.93711 12.2061 4.18086 11.5311 4.44336 10.8561C4.46211 10.7998 4.57461 10.7248 4.63086 10.7248C6.63711 10.7061 8.62461 10.7061 10.6871 10.7061Z" fill="white"/>
<defs>
<linearGradient id="paint0_linear" x1="2.22188" y1="2.22188" x2="21.7781" y2="21.7781" gradientUnits="userSpaceOnUse">
<stop stop-color="#1F75BC"/>
<stop offset="1" stop-color="#175D95"/>
</linearGradient>
</defs>
</svg>
