<svg width="24" height="24" viewBox="0 0 24 24" fill="none" xmlns="http://www.w3.org/2000/svg">
<path fill-rule="evenodd" clip-rule="evenodd" d="M16.4062 24H7.59375C3.39375 24 0 20.6063 0 16.4062V7.59375C0 3.39375 3.39375 0 7.59375 0H16.4062C20.6063 0 24 3.39375 24 7.59375V16.4062C24 20.6063 20.6063 24 16.4062 24Z" fill="url(#paint0_linear)"/>
<g opacity="0.2">
<path opacity="0.2" fill-rule="evenodd" clip-rule="evenodd" d="M11.9575 17.7668H7.87329V12.3141H6.43359V10.9784H7.87318V5.52536H11.3785C12.2077 5.52536 17.7003 5.35242 17.7003 11.7484C17.7003 18.2502 11.9576 17.7668 11.9576 17.7668H11.9575ZM11.785 7.78805H10.1737V10.9783H12.7088V12.314H10.1737V15.504L11.864 15.504C12.2983 15.504 15.4295 15.5533 15.4247 11.7925C15.4198 8.03166 12.3877 7.78805 11.785 7.78805Z" fill="white"/>
</g>
<path fill-rule="evenodd" clip-rule="evenodd" d="M11.5239 17.2419H7.4397V11.7892H6V10.4535H7.43959V5.00046H10.9449C11.7741 5.00046 17.2667 4.82752 17.2667 11.2235C17.2667 17.7253 11.524 17.2419 11.524 17.2419H11.5239ZM11.3514 7.26314H9.74011V10.4534H12.2752V11.7891H9.74011V14.9791L11.4304 14.9791C11.8647 14.9791 14.9959 15.0284 14.9911 11.2676C14.9862 7.50675 11.9541 7.26314 11.3514 7.26314Z" fill="white"/>
<defs>
<linearGradient id="paint0_linear" x1="2.22416" y1="2.22416" x2="21.7758" y2="21.7758" gradientUnits="userSpaceOnUse">
<stop stop-color="#F9A038"/>
<stop offset="1" stop-color="#F47C36"/>
</linearGradient>
</defs>
</svg>
