<svg width="41" height="41" viewBox="0 0 41 41" fill="none" xmlns="http://www.w3.org/2000/svg">
<g clip-path="url(#clip0)">
<path d="M20.5008 41.0017C31.8231 41.0017 41.0017 31.8231 41.0017 20.5008C41.0017 9.17853 31.8231 0 20.5008 0C9.17853 0 0 9.17853 0 20.5008C0 31.8231 9.17853 41.0017 20.5008 41.0017Z" fill="#616161"/>
<path d="M20.5008 33.5464C13.295 33.5464 7.4553 27.7067 7.4553 20.5008C7.4553 13.295 13.295 7.4553 20.5008 7.4553C24.1021 7.4553 27.3631 8.91563 29.7254 11.2763L34.9968 6.00488C31.2865 2.29457 26.1604 0 20.5008 0C9.17829 0 0 9.17829 0 20.5008C0 31.8234 9.17829 41.0017 20.5008 41.0017C26.1621 41.0017 31.2865 38.7071 34.9984 34.9984L29.727 29.727C27.3631 32.086 24.1021 33.5464 20.5008 33.5464Z" fill="#9E9E9E"/>
<path d="M33.5462 20.5009H27.0226C27.0226 16.8996 24.1019 13.9773 20.499 13.9773C16.8961 13.9773 13.9771 16.898 13.9771 20.5009C13.9771 22.2553 14.6709 23.8461 15.7992 25.0206L15.7942 25.0256L23.8706 33.102L23.8723 33.1037C29.4427 31.6169 33.5462 26.5388 33.5462 20.5009Z" fill="#424242"/>
<path d="M41.0001 20.5009H33.5448C33.5448 26.5388 29.4397 31.6169 23.8726 33.1037L29.6296 38.8608C36.3696 35.5023 41.0001 28.5426 41.0001 20.5009Z" fill="#616161"/>
<path d="M20.5008 40.7671C9.21794 40.7671 0.0660784 31.6516 0.00165197 20.3835C0.00165197 20.4232 0 20.4612 0 20.5008C0 31.8234 9.17829 41.0017 20.5008 41.0017C31.8234 41.0017 41.0017 31.8234 41.0017 20.5008C41.0017 20.4612 41 20.4232 41 20.3835C40.9356 31.6516 31.7821 40.7671 20.5008 40.7671Z" fill="#212121" fill-opacity="0.1"/>
<path d="M23.874 33.1037L24.0557 33.2854C29.5303 31.7391 33.5462 26.7073 33.5462 20.7338V20.5009C33.5462 26.5388 29.4411 31.6169 23.874 33.1037Z" fill="white" fill-opacity="0.05"/>
<path d="M37.2741 18.6367H20.5001C19.471 18.6367 18.6367 19.471 18.6367 20.5001C18.6367 21.5293 19.471 22.3635 20.5001 22.3635H37.2725C38.3017 22.3635 39.1359 21.5293 39.1359 20.5001C39.1375 19.471 38.3033 18.6367 37.2741 18.6367Z" fill="#9E9E9E"/>
<path opacity="0.5" d="M37.2741 18.6367H20.5001C19.471 18.6367 18.6367 19.471 18.6367 20.5001C18.6367 21.5293 19.471 22.3635 20.5001 22.3635H37.2725C38.3017 22.3635 39.1359 21.5293 39.1359 20.5001C39.1375 19.471 38.3033 18.6367 37.2741 18.6367Z" fill="#BDBDBD"/>
<path d="M3.72715 21.8984C4.499 21.8984 5.12471 21.2727 5.12471 20.5008C5.12471 19.729 4.499 19.1033 3.72715 19.1033C2.9553 19.1033 2.32959 19.729 2.32959 20.5008C2.32959 21.2727 2.9553 21.8984 3.72715 21.8984Z" fill="#BDBDBD"/>
<path d="M20.5011 5.12434C21.2729 5.12434 21.8986 4.49863 21.8986 3.72678C21.8986 2.95493 21.2729 2.32922 20.5011 2.32922C19.7292 2.32922 19.1035 2.95493 19.1035 3.72678C19.1035 4.49863 19.7292 5.12434 20.5011 5.12434Z" fill="#BDBDBD"/>
<path d="M20.5011 38.6707C21.2729 38.6707 21.8986 38.045 21.8986 37.2732C21.8986 36.5013 21.2729 35.8756 20.5011 35.8756C19.7292 35.8756 19.1035 36.5013 19.1035 37.2732C19.1035 38.045 19.7292 38.6707 20.5011 38.6707Z" fill="#BDBDBD"/>
<path d="M8.62022 10.0373C9.39207 10.0373 10.0178 9.41159 10.0178 8.63974C10.0178 7.86789 9.39207 7.24219 8.62022 7.24219C7.84837 7.24219 7.22266 7.86789 7.22266 8.63974C7.22266 9.41159 7.84837 10.0373 8.62022 10.0373Z" fill="#BDBDBD"/>
<path d="M8.62022 33.7792C9.39207 33.7792 10.0178 33.1535 10.0178 32.3817C10.0178 31.6098 9.39207 30.9841 8.62022 30.9841C7.84837 30.9841 7.22266 31.6098 7.22266 32.3817C7.22266 33.1535 7.84837 33.7792 8.62022 33.7792Z" fill="#BDBDBD"/>
<path d="M32.3819 33.7792C33.1538 33.7792 33.7795 33.1535 33.7795 32.3817C33.7795 31.6098 33.1538 30.9841 32.3819 30.9841C31.6101 30.9841 30.9844 31.6098 30.9844 32.3817C30.9844 33.1535 31.6101 33.7792 32.3819 33.7792Z" fill="#757575"/>
<path d="M20.5011 18.8703H37.2735C38.263 18.8703 39.0724 19.6434 39.1303 20.618C39.1319 20.5784 39.1369 20.5404 39.1369 20.5007C39.1369 19.4716 38.3026 18.6373 37.2735 18.6373H20.5011C19.4719 18.6373 18.6377 19.4716 18.6377 20.5007C18.6377 20.5404 18.6393 20.5784 18.6443 20.618C18.7021 19.6434 19.5099 18.8703 20.5011 18.8703Z" fill="white" fill-opacity="0.2"/>
<path d="M39.1303 20.6165C39.0691 21.5894 38.2613 22.3642 37.2735 22.3642H20.5011C19.5116 22.3642 18.7021 21.5911 18.6443 20.6165C18.6393 20.6561 18.6377 20.6941 18.6377 20.7321C18.6377 21.7612 19.4719 22.5955 20.5011 22.5955H37.2735C38.3026 22.5955 39.1369 21.7612 39.1369 20.7321C39.1369 20.6941 39.1352 20.6561 39.1303 20.6165Z" fill="#212121" fill-opacity="0.2"/>
<path d="M20.5006 7.68817C24.1019 7.68817 27.3629 9.14851 29.7252 11.5092L35.1105 6.12046C35.0709 6.08082 35.0329 6.04117 34.9949 6.00317L29.7252 11.2746C27.3629 8.91393 24.1019 7.4536 20.5006 7.4536C13.2948 7.4536 7.45508 13.2933 7.45508 20.4991C7.45508 20.5388 7.45673 20.5768 7.45673 20.6164C7.5195 13.4651 13.3344 7.68817 20.5006 7.68817Z" fill="#212121" fill-opacity="0.1"/>
<path d="M20.5008 41.0017C31.8231 41.0017 41.0017 31.8231 41.0017 20.5008C41.0017 9.17853 31.8231 0 20.5008 0C9.17853 0 0 9.17853 0 20.5008C0 31.8231 9.17853 41.0017 20.5008 41.0017Z" fill="url(#paint0_radial)"/>
</g>
<defs>
<radialGradient id="paint0_radial" cx="0" cy="0" r="1" gradientUnits="userSpaceOnUse" gradientTransform="translate(6.01199 5.96531) scale(40.9308)">
<stop stop-color="white" stop-opacity="0.1"/>
<stop offset="1" stop-color="white" stop-opacity="0"/>
</radialGradient>
<clipPath id="clip0">
<rect width="41" height="41" fill="white"/>
</clipPath>
</defs>
</svg>
