<svg width="108" height="47" viewBox="0 0 108 47" fill="none" xmlns="http://www.w3.org/2000/svg">
<path d="M1.536 35.064V19.2H4.296V25.872C5.08 25.248 6.032 24.936 7.152 24.936C8.736 24.936 9.984 25.448 10.896 26.472C11.824 27.464 12.288 28.784 12.288 30.432C12.288 32.208 11.728 33.624 10.608 34.68C9.504 35.736 8.008 36.264 6.12 36.264C5.288 36.264 4.448 36.152 3.6 35.928C2.768 35.704 2.08 35.416 1.536 35.064ZM6.504 27.528C5.624 27.528 4.888 27.872 4.296 28.56V33.144C4.888 33.512 5.544 33.696 6.264 33.696C7.176 33.696 7.912 33.424 8.472 32.88C9.048 32.32 9.336 31.568 9.336 30.624C9.336 29.648 9.072 28.888 8.544 28.344C8.016 27.8 7.336 27.528 6.504 27.528ZM17.6124 36H14.8524V25.2H17.6124V36ZM14.5644 21.312C14.5644 20.832 14.7244 20.448 15.0444 20.16C15.3804 19.856 15.7964 19.704 16.2924 19.704C16.7244 19.704 17.0924 19.856 17.3964 20.16C17.7164 20.464 17.8764 20.848 17.8764 21.312C17.8764 21.824 17.7164 22.24 17.3964 22.56C17.0924 22.88 16.7244 23.04 16.2924 23.04C15.7964 23.04 15.3804 22.88 15.0444 22.56C14.7244 22.24 14.5644 21.824 14.5644 21.312ZM20.6207 31.896V22.2H23.3807V25.2H26.8607V27.792H23.3807V31.728C23.3807 33.024 23.8127 33.672 24.6767 33.672C25.2207 33.672 25.7727 33.464 26.3327 33.048L27.1727 35.184C26.2927 35.888 25.2287 36.24 23.9807 36.24C22.8127 36.24 21.9567 35.888 21.4127 35.184C20.8847 34.464 20.6207 33.368 20.6207 31.896ZM34.9551 27.984L34.2591 25.968C35.4271 25.28 36.6991 24.936 38.0751 24.936C39.5791 24.936 40.6751 25.304 41.3631 26.04C42.0511 26.776 42.3951 27.904 42.3951 29.424V36H39.9951V34.752C39.3551 35.68 38.2911 36.144 36.8031 36.144C35.7791 36.144 34.9551 35.848 34.3311 35.256C33.7231 34.648 33.4191 33.84 33.4191 32.832C33.4191 31.712 33.7791 30.848 34.4991 30.24C35.2191 29.632 36.1711 29.328 37.3551 29.328C38.3311 29.328 39.1471 29.56 39.8031 30.024C39.8351 29.064 39.6911 28.36 39.3711 27.912C39.0671 27.464 38.5391 27.24 37.7871 27.24C36.9551 27.24 36.0111 27.488 34.9551 27.984ZM37.7151 33.816C38.6431 33.816 39.3391 33.488 39.8031 32.832V31.728C39.3551 31.376 38.7231 31.2 37.9071 31.2C37.3951 31.2 36.9791 31.32 36.6591 31.56C36.3391 31.8 36.1791 32.128 36.1791 32.544C36.1791 32.928 36.3231 33.24 36.6111 33.48C36.8991 33.704 37.2671 33.816 37.7151 33.816ZM53.1684 32.376L54.4644 34.392C53.5524 35.64 52.1204 36.264 50.1684 36.264C48.4244 36.264 47.0084 35.744 45.9204 34.704C44.8484 33.68 44.3124 32.312 44.3124 30.6C44.3124 28.984 44.8404 27.64 45.8964 26.568C46.9524 25.48 48.2884 24.936 49.9044 24.936C51.8244 24.936 53.2724 25.424 54.2484 26.4L52.9524 28.584C52.2164 27.88 51.3204 27.528 50.2644 27.528C49.4644 27.528 48.7604 27.816 48.1524 28.392C47.5604 28.936 47.2644 29.672 47.2644 30.6C47.2644 31.528 47.5684 32.28 48.1764 32.856C48.8164 33.416 49.5524 33.696 50.3844 33.696C51.4564 33.696 52.3844 33.256 53.1684 32.376ZM56.1998 31.896V22.2H58.9598V25.2H62.4398V27.792H58.9598V31.728C58.9598 33.024 59.3918 33.672 60.2558 33.672C60.7998 33.672 61.3518 33.464 61.9118 33.048L62.7518 35.184C61.8718 35.888 60.8078 36.24 59.5598 36.24C58.3918 36.24 57.5358 35.888 56.9918 35.184C56.4638 34.464 56.1998 33.368 56.1998 31.896ZM68.0162 36H65.2562V25.2H68.0162V36ZM64.9682 21.312C64.9682 20.832 65.1282 20.448 65.4482 20.16C65.7842 19.856 66.2002 19.704 66.6962 19.704C67.1282 19.704 67.4962 19.856 67.8002 20.16C68.1202 20.464 68.2802 20.848 68.2802 21.312C68.2802 21.824 68.1202 22.24 67.8002 22.56C67.4962 22.88 67.1282 23.04 66.6962 23.04C66.2002 23.04 65.7842 22.88 65.4482 22.56C65.1282 22.24 64.9682 21.824 64.9682 21.312ZM78.4164 25.2H81.3204L76.6644 36.048H74.6244L69.6564 25.2H72.9444L74.9364 29.832C75.2724 30.584 75.5444 31.4 75.7524 32.28C75.9764 31.368 76.2404 30.536 76.5444 29.784L78.4164 25.2ZM85.7471 36H82.9871V25.2H85.7471V36ZM82.6991 21.312C82.6991 20.832 82.8591 20.448 83.1791 20.16C83.5151 19.856 83.9311 19.704 84.4271 19.704C84.8591 19.704 85.2271 19.856 85.5311 20.16C85.8511 20.464 86.0111 20.848 86.0111 21.312C86.0111 21.824 85.8511 22.24 85.5311 22.56C85.2271 22.88 84.8591 23.04 84.4271 23.04C83.9311 23.04 83.5151 22.88 83.1791 22.56C82.8591 22.24 82.6991 21.824 82.6991 21.312ZM88.7554 31.896V22.2H91.5154V25.2H94.9954V27.792H91.5154V31.728C91.5154 33.024 91.9474 33.672 92.8114 33.672C93.3554 33.672 93.9074 33.464 94.4674 33.048L95.3074 35.184C94.4274 35.888 93.3634 36.24 92.1154 36.24C90.9474 36.24 90.0914 35.888 89.5474 35.184C89.0194 34.464 88.7554 33.368 88.7554 31.896ZM104.465 25.2H107.609L103.361 36C102.593 37.872 101.905 39.136 101.297 39.792C100.705 40.464 100.001 40.8 99.1849 40.8C98.4169 40.8 97.6409 40.52 96.8569 39.96L97.7449 37.872C98.1609 38.128 98.5369 38.256 98.8729 38.256C99.5289 38.256 100.081 37.696 100.529 36.576L100.769 36L95.7769 25.2H99.0889L101.609 31.104C101.641 31.184 101.817 31.704 102.137 32.664C102.233 32.072 102.361 31.544 102.521 31.08L104.465 25.2Z" fill="white"/>
<path d="M31.0625 18H35V17C35 7.64129 27.6424 0 18.5 0C9.35758 0 2 7.64129 2 17V18H5.9375V17C5.9375 9.79011 11.5917 4 18.5 4C25.4083 4 31.0625 9.79011 31.0625 17V18Z" fill="white"/>
<g style="mix-blend-mode:hard-light">
<path d="M47.0625 18H51V17C51 7.64129 43.6424 0 34.5 0C25.3576 0 18 7.64129 18 17V18H21.9375V17C21.9375 9.79011 27.5917 4 34.5 4C41.4083 4 47.0625 9.79011 47.0625 17V18Z" fill="#1B9FFF"/>
</g>
</svg>
