<svg width="170" height="31" viewBox="0 0 170 31" fill="none" xmlns="http://www.w3.org/2000/svg">
<path d="M63.536 23.064V7.2H66.296V13.872C67.08 13.248 68.032 12.936 69.152 12.936C70.736 12.936 71.984 13.448 72.896 14.472C73.824 15.464 74.288 16.784 74.288 18.432C74.288 20.208 73.728 21.624 72.608 22.68C71.504 23.736 70.008 24.264 68.12 24.264C67.288 24.264 66.448 24.152 65.6 23.928C64.768 23.704 64.08 23.416 63.536 23.064ZM68.504 15.528C67.624 15.528 66.888 15.872 66.296 16.56V21.144C66.888 21.512 67.544 21.696 68.264 21.696C69.176 21.696 69.912 21.424 70.472 20.88C71.048 20.32 71.336 19.568 71.336 18.624C71.336 17.648 71.072 16.888 70.544 16.344C70.016 15.8 69.336 15.528 68.504 15.528ZM79.6124 24H76.8524V13.2H79.6124V24ZM76.5644 9.312C76.5644 8.832 76.7244 8.448 77.0444 8.16C77.3804 7.856 77.7964 7.704 78.2924 7.704C78.7244 7.704 79.0924 7.856 79.3964 8.16C79.7164 8.464 79.8764 8.848 79.8764 9.312C79.8764 9.824 79.7164 10.24 79.3964 10.56C79.0924 10.88 78.7244 11.04 78.2924 11.04C77.7964 11.04 77.3804 10.88 77.0444 10.56C76.7244 10.24 76.5644 9.824 76.5644 9.312ZM82.6207 19.896V10.2H85.3807V13.2H88.8607V15.792H85.3807V19.728C85.3807 21.024 85.8127 21.672 86.6767 21.672C87.2207 21.672 87.7727 21.464 88.3327 21.048L89.1727 23.184C88.2927 23.888 87.2287 24.24 85.9807 24.24C84.8127 24.24 83.9567 23.888 83.4127 23.184C82.8847 22.464 82.6207 21.368 82.6207 19.896ZM96.9551 15.984L96.2591 13.968C97.4271 13.28 98.6991 12.936 100.075 12.936C101.579 12.936 102.675 13.304 103.363 14.04C104.051 14.776 104.395 15.904 104.395 17.424V24H101.995V22.752C101.355 23.68 100.291 24.144 98.8031 24.144C97.7791 24.144 96.9551 23.848 96.3311 23.256C95.7231 22.648 95.4191 21.84 95.4191 20.832C95.4191 19.712 95.7791 18.848 96.4991 18.24C97.2191 17.632 98.1711 17.328 99.3551 17.328C100.331 17.328 101.147 17.56 101.803 18.024C101.835 17.064 101.691 16.36 101.371 15.912C101.067 15.464 100.539 15.24 99.7871 15.24C98.9551 15.24 98.0111 15.488 96.9551 15.984ZM99.7151 21.816C100.643 21.816 101.339 21.488 101.803 20.832V19.728C101.355 19.376 100.723 19.2 99.9071 19.2C99.3951 19.2 98.9791 19.32 98.6591 19.56C98.3391 19.8 98.1791 20.128 98.1791 20.544C98.1791 20.928 98.3231 21.24 98.6111 21.48C98.8991 21.704 99.2671 21.816 99.7151 21.816ZM115.168 20.376L116.464 22.392C115.552 23.64 114.12 24.264 112.168 24.264C110.424 24.264 109.008 23.744 107.92 22.704C106.848 21.68 106.312 20.312 106.312 18.6C106.312 16.984 106.84 15.64 107.896 14.568C108.952 13.48 110.288 12.936 111.904 12.936C113.824 12.936 115.272 13.424 116.248 14.4L114.952 16.584C114.216 15.88 113.32 15.528 112.264 15.528C111.464 15.528 110.76 15.816 110.152 16.392C109.56 16.936 109.264 17.672 109.264 18.6C109.264 19.528 109.568 20.28 110.176 20.856C110.816 21.416 111.552 21.696 112.384 21.696C113.456 21.696 114.384 21.256 115.168 20.376ZM118.2 19.896V10.2H120.96V13.2H124.44V15.792H120.96V19.728C120.96 21.024 121.392 21.672 122.256 21.672C122.8 21.672 123.352 21.464 123.912 21.048L124.752 23.184C123.872 23.888 122.808 24.24 121.56 24.24C120.392 24.24 119.536 23.888 118.992 23.184C118.464 22.464 118.2 21.368 118.2 19.896ZM130.016 24H127.256V13.2H130.016V24ZM126.968 9.312C126.968 8.832 127.128 8.448 127.448 8.16C127.784 7.856 128.2 7.704 128.696 7.704C129.128 7.704 129.496 7.856 129.8 8.16C130.12 8.464 130.28 8.848 130.28 9.312C130.28 9.824 130.12 10.24 129.8 10.56C129.496 10.88 129.128 11.04 128.696 11.04C128.2 11.04 127.784 10.88 127.448 10.56C127.128 10.24 126.968 9.824 126.968 9.312ZM140.416 13.2H143.32L138.664 24.048H136.624L131.656 13.2H134.944L136.936 17.832C137.272 18.584 137.544 19.4 137.752 20.28C137.976 19.368 138.24 18.536 138.544 17.784L140.416 13.2ZM147.747 24H144.987V13.2H147.747V24ZM144.699 9.312C144.699 8.832 144.859 8.448 145.179 8.16C145.515 7.856 145.931 7.704 146.427 7.704C146.859 7.704 147.227 7.856 147.531 8.16C147.851 8.464 148.011 8.848 148.011 9.312C148.011 9.824 147.851 10.24 147.531 10.56C147.227 10.88 146.859 11.04 146.427 11.04C145.931 11.04 145.515 10.88 145.179 10.56C144.859 10.24 144.699 9.824 144.699 9.312ZM150.755 19.896V10.2H153.515V13.2H156.995V15.792H153.515V19.728C153.515 21.024 153.947 21.672 154.811 21.672C155.355 21.672 155.907 21.464 156.467 21.048L157.307 23.184C156.427 23.888 155.363 24.24 154.115 24.24C152.947 24.24 152.091 23.888 151.547 23.184C151.019 22.464 150.755 21.368 150.755 19.896ZM166.465 13.2H169.609L165.361 24C164.593 25.872 163.905 27.136 163.297 27.792C162.705 28.464 162.001 28.8 161.185 28.8C160.417 28.8 159.641 28.52 158.857 27.96L159.745 25.872C160.161 26.128 160.537 26.256 160.873 26.256C161.529 26.256 162.081 25.696 162.529 24.576L162.769 24L157.777 13.2H161.089L163.609 19.104C163.641 19.184 163.817 19.704 164.137 20.664C164.233 20.072 164.361 19.544 164.521 19.08L166.465 13.2Z" fill="white"/>
<path d="M29.0625 24H33V23C33 13.6413 25.6424 6 16.5 6C7.35758 6 0 13.6413 0 23V24H3.9375V23C3.9375 15.7901 9.59166 10 16.5 10C23.4083 10 29.0625 15.7901 29.0625 23V24Z" fill="white"/>
<g style="mix-blend-mode:hard-light">
<path d="M45.0625 24H49V23C49 13.6413 41.6424 6 32.5 6C23.3576 6 16 13.6413 16 23V24H19.9375V23C19.9375 15.7901 25.5917 10 32.5 10C39.4083 10 45.0625 15.7901 45.0625 23V24Z" fill="#1B9FFF"/>
</g>
</svg>
