<svg width="114" height="44" viewBox="0 0 114 44" fill="none" xmlns="http://www.w3.org/2000/svg">
<path d="M0 37.6844V20.6349H2.96626V27.8055C3.80885 27.1349 4.832 26.7996 6.0357 26.7996C7.73808 26.7996 9.07934 27.3498 10.0595 28.4503C11.0569 29.5165 11.5555 30.9351 11.5555 32.7063C11.5555 34.615 10.9537 36.1368 9.74998 37.2718C8.56347 38.4067 6.95567 38.9741 4.92658 38.9741C4.0324 38.9741 3.12962 38.8538 2.21825 38.613C1.32407 38.3723 0.584655 38.0628 0 37.6844ZM5.33927 29.5853C4.39351 29.5853 3.6025 29.955 2.96626 30.6944V35.621C3.6025 36.0165 4.30753 36.2142 5.08134 36.2142C6.06149 36.2142 6.8525 35.9219 7.45435 35.3372C8.07339 34.7354 8.38292 33.9272 8.38292 32.9126C8.38292 31.8637 8.09919 31.0469 7.53173 30.4622C6.96427 29.8776 6.23345 29.5853 5.33927 29.5853Z" fill="#0497FD"/>
<path d="M17.2779 38.6904H14.3116V27.0833H17.2779V38.6904ZM14.0021 22.9047C14.0021 22.3889 14.174 21.9762 14.518 21.6666C14.8791 21.3399 15.3262 21.1766 15.8592 21.1766C16.3235 21.1766 16.719 21.3399 17.0457 21.6666C17.3896 21.9934 17.5616 22.406 17.5616 22.9047C17.5616 23.455 17.3896 23.9021 17.0457 24.246C16.719 24.5899 16.3235 24.7619 15.8592 24.7619C15.3262 24.7619 14.8791 24.5899 14.518 24.246C14.174 23.9021 14.0021 23.455 14.0021 22.9047Z" fill="#0497FD"/>
<path d="M20.5109 34.2797V23.8591H23.4772V27.0833H27.2173V29.869H23.4772V34.0991C23.4772 35.492 23.9415 36.1884 24.8701 36.1884C25.4547 36.1884 26.048 35.9649 26.6498 35.5178L27.5526 37.8134C26.6068 38.57 25.4633 38.9483 24.122 38.9483C22.8668 38.9483 21.9468 38.57 21.3621 37.8134C20.7947 37.0396 20.5109 35.8617 20.5109 34.2797Z" fill="#0497FD"/>
<path d="M35.9166 30.0753L35.1685 27.9087C36.4238 27.1693 37.7909 26.7996 39.2697 26.7996C40.8861 26.7996 42.064 27.1951 42.8035 27.9861C43.5429 28.7771 43.9126 29.9894 43.9126 31.623V38.6904H41.3332V37.3491C40.6454 38.3465 39.5019 38.8452 37.9027 38.8452C36.8021 38.8452 35.9166 38.527 35.2459 37.8908C34.5925 37.2374 34.2658 36.369 34.2658 35.2856C34.2658 34.0819 34.6527 33.1534 35.4265 32.4999C36.2003 31.8465 37.2234 31.5198 38.4959 31.5198C39.5449 31.5198 40.4218 31.7691 41.1269 32.2678C41.1613 31.2361 41.0065 30.4794 40.6626 29.998C40.3359 29.5165 39.7684 29.2757 38.9602 29.2757C38.066 29.2757 37.0515 29.5423 35.9166 30.0753ZM38.8828 36.3432C39.8802 36.3432 40.6282 35.9907 41.1269 35.2856V34.0991C40.6454 33.7208 39.9662 33.5317 39.0892 33.5317C38.5389 33.5317 38.0918 33.6606 37.7479 33.9186C37.404 34.1765 37.232 34.529 37.232 34.9761C37.232 35.3888 37.3868 35.7241 37.6963 35.9821C38.0058 36.2228 38.4013 36.3432 38.8828 36.3432Z" fill="#0497FD"/>
<path d="M55.4911 34.7956L56.8839 36.9622C55.9038 38.3035 54.3648 38.9741 52.2669 38.9741C50.3925 38.9741 48.8707 38.4153 47.7014 37.2975C46.5493 36.197 45.9732 34.7268 45.9732 32.8868C45.9732 31.1501 46.5407 29.7056 47.6756 28.5535C48.8105 27.3842 50.2464 26.7996 51.9831 26.7996C54.0466 26.7996 55.6028 27.324 56.6518 28.373L55.2589 30.7202C54.4679 29.9636 53.505 29.5853 52.3701 29.5853C51.5103 29.5853 50.7537 29.8948 50.1002 30.5138C49.464 31.0985 49.1459 31.8895 49.1459 32.8868C49.1459 33.8842 49.4726 34.6924 50.126 35.3114C50.8138 35.9133 51.6048 36.2142 52.499 36.2142C53.6511 36.2142 54.6485 35.7413 55.4911 34.7956Z" fill="#0497FD"/>
<path d="M58.7489 34.2797V23.8591H61.7152V27.0833H65.4553V29.869H61.7152V34.0991C61.7152 35.492 62.1795 36.1884 63.108 36.1884C63.6927 36.1884 64.2859 35.9649 64.8878 35.5178L65.7906 37.8134C64.8448 38.57 63.7013 38.9483 62.36 38.9483C61.1047 38.9483 60.1848 38.57 59.6001 37.8134C59.0327 37.0396 58.7489 35.8617 58.7489 34.2797Z" fill="#0497FD"/>
<path d="M71.4484 38.6904H68.4822V27.0833H71.4484V38.6904ZM68.1727 22.9047C68.1727 22.3889 68.3446 21.9762 68.6885 21.6666C69.0496 21.3399 69.4967 21.1766 70.0298 21.1766C70.4941 21.1766 70.8896 21.3399 71.2163 21.6666C71.5602 21.9934 71.7322 22.406 71.7322 22.9047C71.7322 23.455 71.5602 23.9021 71.2163 24.246C70.8896 24.5899 70.4941 24.7619 70.0298 24.7619C69.4967 24.7619 69.0496 24.5899 68.6885 24.246C68.3446 23.9021 68.1727 23.455 68.1727 22.9047Z" fill="#0497FD"/>
<path d="M82.6259 27.0833H85.747L80.743 38.742H78.5505L73.2113 27.0833H76.745L78.8859 32.0614C79.247 32.8696 79.5393 33.7466 79.7628 34.6924C80.0036 33.7122 80.2873 32.8181 80.614 32.0099L82.6259 27.0833Z" fill="#0497FD"/>
<path d="M90.5045 38.6904H87.5382V27.0833H90.5045V38.6904ZM87.2287 22.9047C87.2287 22.3889 87.4006 21.9762 87.7445 21.6666C88.1056 21.3399 88.5527 21.1766 89.0858 21.1766C89.5501 21.1766 89.9456 21.3399 90.2723 21.6666C90.6162 21.9934 90.7882 22.406 90.7882 22.9047C90.7882 23.455 90.6162 23.9021 90.2723 24.246C89.9456 24.5899 89.5501 24.7619 89.0858 24.7619C88.5527 24.7619 88.1056 24.5899 87.7445 24.246C87.4006 23.9021 87.2287 23.455 87.2287 22.9047Z" fill="#0497FD"/>
<path d="M93.7375 34.2797V23.8591H96.7038V27.0833H100.444V29.869H96.7038V34.0991C96.7038 35.492 97.1681 36.1884 98.0966 36.1884C98.6813 36.1884 99.2745 35.9649 99.8764 35.5178L100.779 37.8134C99.8334 38.57 98.6899 38.9483 97.3486 38.9483C96.0933 38.9483 95.1734 38.57 94.5887 37.8134C94.0212 37.0396 93.7375 35.8617 93.7375 34.2797Z" fill="#0497FD"/>
<path d="M110.621 27.0833H114L109.435 38.6904C108.609 40.7023 107.87 42.0608 107.216 42.7658C106.58 43.488 105.823 43.8491 104.946 43.8491C104.121 43.8491 103.287 43.5482 102.444 42.9463L103.399 40.7023C103.846 40.9774 104.25 41.115 104.611 41.115C105.316 41.115 105.909 40.5131 106.391 39.3094L106.649 38.6904L101.284 27.0833H104.843L107.552 33.4285C107.586 33.5145 107.775 34.0733 108.119 35.1051C108.222 34.4688 108.36 33.9014 108.532 33.4027L110.621 27.0833Z" fill="#0497FD"/>
<path d="M31.7331 19.3453H35.9648V18.2706C35.9648 8.21247 28.0574 0.00012207 18.2317 0.00012207C8.40609 0.00012207 0.498657 8.21247 0.498657 18.2706V19.3453H4.73042V18.2706C4.73042 10.5219 10.8071 4.29905 18.2317 4.29905C25.6564 4.29905 31.7331 10.5219 31.7331 18.2706V19.3453Z" fill="#0497FD"/>
<path d="M48.9284 19.3453H53.1602V18.2706C53.1602 8.21247 45.2527 0.00012207 35.4271 0.00012207C25.6014 0.00012207 17.694 8.21247 17.694 18.2706V19.3453H21.9257V18.2706C21.9257 10.5219 28.0024 4.29905 35.4271 4.29905C42.8517 4.29905 48.9284 10.5219 48.9284 18.2706V19.3453Z" fill="#0168FF"/>
</svg>
