<svg width="24" height="24" viewBox="0 0 24 24" fill="none" xmlns="http://www.w3.org/2000/svg">
<path fill-rule="evenodd" clip-rule="evenodd" d="M16.4062 24H7.59375C3.39375 24 0 20.6063 0 16.4062V7.59375C0 3.39375 3.39375 0 7.59375 0H16.4062C20.6063 0 24 3.39375 24 7.59375V16.4062C24 20.6063 20.6063 24 16.4062 24Z" fill="url(#paint0_linear)"/>
<g opacity="0.2">
<path opacity="0.2" fill-rule="evenodd" clip-rule="evenodd" d="M7.97461 20.1375V5.13745C11.5416 5.18438 13.7951 5.31278 14.7351 5.52264C16.8059 5.98497 17.7635 7.30386 17.8802 9.71485C18.0248 12.6965 16.5821 14.598 14.6908 15.0484C13.9954 15.214 12.7191 15.2968 10.8618 15.2968V20.1375H7.97461ZM12.9183 7.68115C12.7131 7.63787 12.1663 7.60231 11.7035 7.60231H10.8618V10.1803V12.7585L11.9007 12.7256C13.7458 12.6673 14.4456 12.1319 14.585 10.6722C14.7495 8.95003 14.1928 7.95105 12.9183 7.68115Z" fill="black"/>
</g>
<path fill-rule="evenodd" clip-rule="evenodd" d="M7.375 19.9375V4.9375C10.942 4.98443 13.1955 5.11283 14.1355 5.32269C16.2063 5.78501 17.1639 7.10391 17.2806 9.5149C17.4252 12.4966 15.9824 14.3981 14.0912 14.8485C13.3958 15.014 12.1195 15.0968 10.2622 15.0968V19.9375H7.375ZM12.3187 7.4812C12.1135 7.43792 11.5667 7.40236 11.1039 7.40236H10.2622V9.98036V12.5585L11.3011 12.5257C13.1462 12.4673 13.846 11.932 13.9854 10.4722C14.1499 8.75008 13.5932 7.7511 12.3187 7.4812Z" fill="white"/>
<defs>
<linearGradient id="paint0_linear" x1="2.22188" y1="2.22188" x2="21.7781" y2="21.7781" gradientUnits="userSpaceOnUse">
<stop stop-color="#0CA0DB"/>
<stop offset="1" stop-color="#3576BC"/>
</linearGradient>
</defs>
</svg>
