<svg width="24" height="24" viewBox="0 0 24 24" fill="none" xmlns="http://www.w3.org/2000/svg">
<path fill-rule="evenodd" clip-rule="evenodd" d="M16.4062 24H7.59375C3.39375 24 0 20.6063 0 16.4062V7.59375C0 3.39375 3.39375 0 7.59375 0H16.4062C20.6063 0 24 3.39375 24 7.59375V16.4062C24 20.6063 20.6063 24 16.4062 24Z" fill="url(#paint0_linear)"/>
<g opacity="0.2">
<path opacity="0.2" fill-rule="evenodd" clip-rule="evenodd" d="M6.34214 9.1264V13.9625C6.34214 15.101 6.36386 15.242 7.05867 15.3179L7.3518 15.3504C7.41694 15.4046 7.39523 15.589 7.33009 15.6215C6.71127 15.5998 6.353 15.589 5.91874 15.589C5.46277 15.589 5.07193 15.5998 4.59425 15.6215C4.52911 15.589 4.50739 15.4155 4.57253 15.3504L4.80052 15.3179C5.4302 15.2311 5.45191 15.101 5.45191 13.9625V9.96133C5.45191 9.03965 5.4302 8.85532 4.94166 8.8011L4.55082 8.75773C4.47483 8.69267 4.48568 8.53002 4.57253 8.48665C5.14793 8.41075 5.82103 8.3999 6.72212 8.3999C7.62321 8.3999 8.29632 8.51918 8.80657 8.83363C9.30597 9.14808 9.67509 9.71193 9.67509 10.4601C9.67509 11.4577 9.05627 11.9565 8.58944 12.1842C8.11176 12.4119 7.53636 12.5095 7.09124 12.5095C7.01525 12.477 7.01525 12.3143 7.08039 12.2926C8.25289 12.0758 8.67629 11.4143 8.67629 10.471C8.67629 9.41917 8.05747 8.73604 6.9284 8.73604C6.353 8.73604 6.34214 8.77942 6.34214 9.1264ZM13.008 10.189L14.2457 12.6938C14.4954 13.2034 14.7342 13.7022 14.9948 14.1793H15.0165C15.3096 13.6697 15.581 13.1059 15.8524 12.5529L16.873 10.4818C17.3615 9.49507 17.6763 8.89869 17.6981 8.3999C18.0672 8.43243 18.2952 8.43243 18.5123 8.43243C18.7837 8.43243 19.142 8.42159 19.4785 8.3999C19.5437 8.44328 19.5437 8.62761 19.4894 8.67098L19.2614 8.69267C18.5774 8.75773 18.4906 8.96375 18.5014 9.72278C18.5231 10.8722 18.534 12.8782 18.6209 14.4396C18.6534 14.9817 18.6426 15.2745 19.1528 15.3179L19.5002 15.3504C19.5654 15.4155 19.5545 15.5781 19.4785 15.6215C19.0334 15.5998 18.5883 15.589 18.1975 15.589C17.8175 15.589 17.3289 15.5998 16.8838 15.6215C16.8078 15.5673 16.797 15.4155 16.8621 15.3504L17.1769 15.3179C17.7089 15.2637 17.7089 15.0902 17.7089 14.3962L17.6763 9.87458H17.6546C17.5786 9.99386 17.1661 10.8613 16.949 11.2842L15.9827 13.1818C15.4942 14.136 15.0056 15.1552 14.8102 15.654C14.7885 15.6865 14.7451 15.6974 14.7017 15.6974C14.6799 15.6974 14.6257 15.6865 14.6039 15.654C14.4194 15.0793 13.8983 14.0167 13.6486 13.4854L12.6715 11.3926C12.4435 10.8938 12.2155 10.33 11.9767 9.83121H11.955C11.9115 10.5035 11.879 11.1324 11.8464 11.7613C11.8138 12.4227 11.7704 13.3878 11.7704 14.3095C11.7704 15.1119 11.8355 15.2853 12.2589 15.3179L12.6715 15.3504C12.7475 15.4155 12.7366 15.589 12.6606 15.6215C12.2915 15.5998 11.8681 15.589 11.4556 15.589C11.1082 15.589 10.7173 15.5998 10.3482 15.6215C10.2831 15.5673 10.2613 15.4046 10.3265 15.3504L10.5653 15.3179C11.0213 15.2528 11.1733 15.1878 11.2384 14.4287C11.3036 13.7131 11.3579 13.1167 11.423 12.0432C11.4773 11.1432 11.5207 10.2216 11.5424 9.62519C11.5641 8.94206 11.4773 8.77942 10.815 8.69267L10.6413 8.67098C10.587 8.60592 10.5979 8.44328 10.6847 8.3999C11.0104 8.42159 11.271 8.43243 11.5424 8.43243C11.7921 8.43243 12.0852 8.43243 12.4435 8.3999C12.4001 8.82279 12.6715 9.49507 13.008 10.189Z" fill="black"/>
</g>
<path fill-rule="evenodd" clip-rule="evenodd" d="M5.84214 8.7265V13.5626C5.84214 14.7011 5.86386 14.8421 6.55867 14.918L6.8518 14.9505C6.91694 15.0047 6.89523 15.1891 6.83009 15.2216C6.21127 15.1999 5.853 15.1891 5.41874 15.1891C4.96277 15.1891 4.57193 15.1999 4.09425 15.2216C4.02911 15.1891 4.00739 15.0156 4.07253 14.9505L4.30052 14.918C4.9302 14.8312 4.95191 14.7011 4.95191 13.5626V9.56142C4.95191 8.63975 4.9302 8.45542 4.44166 8.4012L4.05082 8.35783C3.97483 8.29277 3.98568 8.13012 4.07253 8.08675C4.64793 8.01084 5.32103 8 6.22212 8C7.12321 8 7.79632 8.11928 8.30657 8.43373C8.80597 8.74818 9.17509 9.31203 9.17509 10.0602C9.17509 11.0578 8.55627 11.5566 8.08944 11.7843C7.61176 12.012 7.03636 12.1096 6.59124 12.1096C6.51525 12.0771 6.51525 11.9144 6.58039 11.8927C7.75289 11.6759 8.17629 11.0144 8.17629 10.0711C8.17629 9.01926 7.55747 8.33614 6.4284 8.33614C5.853 8.33614 5.84214 8.37951 5.84214 8.7265ZM12.508 9.78913L13.7457 12.2939C13.9954 12.8035 14.2342 13.3023 14.4948 13.7794H14.5165C14.8096 13.2698 15.081 12.706 15.3524 12.153L16.373 10.0819C16.8615 9.09517 17.1763 8.49879 17.1981 8C17.5672 8.03253 17.7952 8.03253 18.0123 8.03253C18.2837 8.03253 18.642 8.02169 18.9785 8C19.0437 8.04337 19.0437 8.22771 18.9894 8.27108L18.7614 8.29277C18.0774 8.35783 17.9906 8.56385 18.0014 9.32287C18.0231 10.4723 18.034 12.4783 18.1209 14.0397C18.1534 14.5818 18.1426 14.8746 18.6528 14.918L19.0002 14.9505C19.0654 15.0156 19.0545 15.1782 18.9785 15.2216C18.5334 15.1999 18.0883 15.1891 17.6975 15.1891C17.3175 15.1891 16.8289 15.1999 16.3838 15.2216C16.3078 15.1674 16.297 15.0156 16.3621 14.9505L16.6769 14.918C17.2089 14.8638 17.2089 14.6903 17.2089 13.9963L17.1763 9.47468H17.1546C17.0786 9.59395 16.6661 10.4614 16.449 10.8843L15.4827 12.7819C14.9942 13.7361 14.5056 14.7553 14.3102 15.2541C14.2885 15.2866 14.2451 15.2975 14.2017 15.2975C14.1799 15.2975 14.1257 15.2866 14.1039 15.2541C13.9194 14.6794 13.3983 13.6168 13.1486 13.0855L12.1715 10.9927C11.9435 10.4939 11.7155 9.93009 11.4767 9.43131H11.455C11.4115 10.1036 11.379 10.7325 11.3464 11.3614C11.3138 12.0228 11.2704 12.9879 11.2704 13.9096C11.2704 14.712 11.3355 14.8854 11.7589 14.918L12.1715 14.9505C12.2475 15.0156 12.2366 15.1891 12.1606 15.2216C11.7915 15.1999 11.3681 15.1891 10.9556 15.1891C10.6082 15.1891 10.2173 15.1999 9.8482 15.2216C9.78306 15.1674 9.76134 15.0047 9.82648 14.9505L10.0653 14.918C10.5213 14.8529 10.6733 14.7879 10.7384 14.0288C10.8036 13.3132 10.8579 12.7168 10.923 11.6433C10.9773 10.7433 11.0207 9.82166 11.0424 9.22528C11.0641 8.54216 10.9773 8.37951 10.315 8.29277L10.1413 8.27108C10.087 8.20602 10.0979 8.04337 10.1847 8C10.5104 8.02169 10.771 8.03253 11.0424 8.03253C11.2921 8.03253 11.5852 8.03253 11.9435 8C11.9001 8.42289 12.1715 9.09517 12.508 9.78913Z" fill="white"/>
<defs>
<linearGradient id="paint0_linear" x1="2.22188" y1="2.22188" x2="21.7781" y2="21.7781" gradientUnits="userSpaceOnUse">
<stop stop-color="#FA9085"/>
<stop offset="1" stop-color="#F0230E"/>
</linearGradient>
</defs>
</svg>
