<svg width="24" height="24" viewBox="0 0 24 24" fill="none" xmlns="http://www.w3.org/2000/svg">
<path fill-rule="evenodd" clip-rule="evenodd" d="M16.4062 24H7.59375C3.39375 24 0 20.6063 0 16.4062V7.59375C0 3.39375 3.39375 0 7.59375 0H16.4062C20.6063 0 24 3.39375 24 7.59375V16.4062C24 20.6063 20.6063 24 16.4062 24Z" fill="url(#paint0_linear)"/>
<g opacity="0.2">
<path opacity="0.2" fill-rule="evenodd" clip-rule="evenodd" d="M18.694 7.68759C18.694 9.26259 17.5128 10.7813 15.8065 10.9876C15.5065 11.0251 15.1878 11.0251 14.8878 11.0813C13.894 11.2876 13.4815 12.4688 14.1378 13.2376C14.4003 13.5563 14.7753 13.6688 15.1878 13.7063C15.6003 13.7438 16.0503 13.7813 16.444 13.9126C17.719 14.3438 18.4503 15.2626 18.6565 16.5751C18.9378 18.3751 17.7378 19.9688 16.069 20.3626C14.2503 20.7751 12.3565 19.5376 12.019 17.7001C11.869 16.8938 12.0378 16.1626 12.394 15.4501C12.544 15.1501 12.6753 14.8501 12.6565 14.5126C12.6378 13.9688 12.2815 13.5001 11.719 13.3126C11.2503 13.1438 10.6878 13.3126 10.369 13.7251C10.1628 13.9876 9.97526 14.2876 9.76901 14.5501C8.88776 15.6001 7.76276 15.9563 6.45026 15.6563C5.13776 15.3563 4.27526 14.5126 3.93776 13.2001C3.46901 11.3251 4.65026 9.45009 6.52526 9.09384C7.91276 8.83134 9.05651 9.28134 9.90026 10.4251C10.0878 10.6688 10.2378 10.9313 10.444 11.1563C11.1378 11.8501 12.3753 11.5126 12.619 10.5563C12.7128 10.1813 12.6378 9.82509 12.469 9.50634C12.1503 8.90634 11.9253 8.26884 11.944 7.55634C12.0003 5.94384 13.2753 4.57509 14.8503 4.36884C16.6315 4.14384 18.2815 5.30634 18.619 7.10634C18.6565 7.27509 18.6753 7.48134 18.694 7.68759Z" fill="black"/>
</g>
<path fill-rule="evenodd" clip-rule="evenodd" d="M18.319 7.31259C18.319 8.88759 17.1378 10.4063 15.4315 10.6126C15.1315 10.6501 14.8128 10.6501 14.5128 10.7063C13.519 10.9126 13.1065 12.0938 13.7628 12.8626C14.0253 13.1813 14.4003 13.2938 14.8128 13.3313C15.2253 13.3688 15.6753 13.4063 16.069 13.5376C17.344 13.9688 18.0753 14.8876 18.2815 16.2001C18.5628 18.0001 17.3628 19.5938 15.694 19.9876C13.8753 20.4001 11.9815 19.1626 11.644 17.3251C11.494 16.5188 11.6628 15.7876 12.019 15.0751C12.169 14.7751 12.3003 14.4751 12.2815 14.1376C12.2628 13.5938 11.9065 13.1251 11.344 12.9376C10.8753 12.7688 10.3128 12.9376 9.99401 13.3501C9.78776 13.6126 9.60026 13.9126 9.39401 14.1751C8.51276 15.2251 7.38776 15.5813 6.07526 15.2813C4.76276 14.9813 3.90026 14.1376 3.56276 12.8251C3.09401 10.9501 4.27526 9.07509 6.15026 8.71884C7.53776 8.45634 8.68151 8.90634 9.52526 10.0501C9.71276 10.2938 9.86276 10.5563 10.069 10.7813C10.7628 11.4751 12.0003 11.1376 12.244 10.1813C12.3378 9.80634 12.2628 9.45009 12.094 9.13134C11.7753 8.53134 11.5503 7.89384 11.569 7.18134C11.6253 5.56884 12.9003 4.20009 14.4753 3.99384C16.2565 3.76884 17.9065 4.93134 18.244 6.73134C18.2815 6.90009 18.3003 7.10634 18.319 7.31259Z" fill="white"/>
<defs>
<linearGradient id="paint0_linear" x1="2.22188" y1="2.22188" x2="21.7781" y2="21.7781" gradientUnits="userSpaceOnUse">
<stop stop-color="#0CA0DB"/>
<stop offset="1" stop-color="#3576BC"/>
</linearGradient>
</defs>
</svg>
