<svg width="24" height="24" viewBox="0 0 24 24" fill="none" xmlns="http://www.w3.org/2000/svg">
<path d="M16.4062 24H7.59375C3.39375 24 0 20.6063 0 16.4062V7.59375C0 3.39375 3.39375 0 7.59375 0H16.4062C20.6063 0 24 3.39375 24 7.59375V16.4062C24 20.6063 20.6063 24 16.4062 24Z" fill="url(#paint0_linear)"/>
<g clip-path="url(#clip0)">
<path d="M19.0062 12.1211C19.0062 11.1789 16.6133 10.3927 13.4334 10.2114L13.4332 8.71008H17.4037V5.58569H6.54676V8.71008H10.5169V10.2187C7.39493 10.4125 5.05957 11.1904 5.05957 12.1211C5.05957 13.0519 7.39493 13.8299 10.5169 14.0233V19.4143H13.4332V14.0307C16.6133 13.8497 19.0062 13.0633 19.0062 12.1211ZM12.0329 13.0493C8.61968 13.0493 5.85267 12.4833 5.85267 11.7847C5.85267 11.1931 7.83676 10.6965 10.5169 10.5584V10.9144H10.5172V12.3735C11.0004 12.4025 11.5082 12.4177 12.0329 12.4177C12.5159 12.4177 12.9851 12.4046 13.4335 12.3805V10.5529C16.1717 10.6826 18.2132 11.1845 18.2132 11.7847C18.2131 12.4833 15.446 13.0493 12.0329 13.0493Z" fill="white"/>
</g>
<defs>
<linearGradient id="paint0_linear" x1="2.22416" y1="2.22416" x2="21.7758" y2="21.7758" gradientUnits="userSpaceOnUse">
<stop stop-color="#52CCA8"/>
<stop offset="1" stop-color="#4BA48A"/>
</linearGradient>
<clipPath id="clip0">
<rect width="14" height="15" fill="white" transform="translate(5 5)"/>
</clipPath>
</defs>
</svg>
