<svg width="24" height="24" viewBox="0 0 24 24" fill="none" xmlns="http://www.w3.org/2000/svg">
<path d="M16.4062 24H7.59375C3.39375 24 0 20.6063 0 16.4062V7.59375C0 3.39375 3.39375 0 7.59375 0H16.4062C20.6063 0 24 3.39375 24 7.59375V16.4062C24 20.6063 20.6063 24 16.4062 24Z" fill="url(#paint0_linear)"/>
<g opacity="0.2">
<path opacity="0.2" d="M11.3809 6.44995C11.3809 5.6812 11.3809 5.0062 11.3809 4.2937C12.2809 4.2937 13.1434 4.2937 14.0809 4.2937C14.0809 4.98745 14.0809 5.6812 14.0809 6.4312C15.1871 6.4312 16.2184 6.4312 17.3621 6.4312C17.2496 7.46245 17.6246 8.4562 16.8371 9.41245C15.2809 11.3062 13.8559 13.3125 12.3934 15.2625C12.3746 15.2812 12.3746 15.3187 12.3559 15.4312C14.0809 15.4312 15.7871 15.4312 17.5121 15.4312C17.5121 16.4437 17.5121 17.3624 17.5121 18.3562C16.3871 18.3562 15.2621 18.3562 14.0809 18.3562C14.0809 19.0875 14.0809 19.7437 14.0809 20.4562C13.1621 20.4562 12.3184 20.4562 11.3996 20.4562C11.3996 19.7812 11.3996 19.1249 11.3996 18.3937C10.2559 18.3937 9.16836 18.3937 8.00586 18.3937C8.06211 17.3437 7.81836 16.3499 8.58711 15.4124C10.1621 13.5187 11.6059 11.5125 13.0871 9.5437C13.1059 9.5062 13.1246 9.44995 13.1621 9.3562C11.5684 9.3562 10.0121 9.3562 8.41836 9.3562C8.41836 8.36245 8.41836 7.4437 8.41836 6.44995C9.41211 6.44995 10.3684 6.44995 11.3809 6.44995Z" fill="black"/>
</g>
<path d="M11.0059 6.07495C11.0059 5.3062 11.0059 4.6312 11.0059 3.9187C11.9059 3.9187 12.7684 3.9187 13.7059 3.9187C13.7059 4.61245 13.7059 5.3062 13.7059 6.0562C14.8121 6.0562 15.8434 6.0562 16.9871 6.0562C16.8746 7.08745 17.2496 8.0812 16.4621 9.03745C14.9059 10.9312 13.4809 12.9375 12.0184 14.8875C11.9996 14.9062 11.9996 14.9437 11.9809 15.0562C13.7059 15.0562 15.4121 15.0562 17.1371 15.0562C17.1371 16.0687 17.1371 16.9874 17.1371 17.9812C16.0121 17.9812 14.8871 17.9812 13.7059 17.9812C13.7059 18.7125 13.7059 19.3687 13.7059 20.0812C12.7871 20.0812 11.9434 20.0812 11.0246 20.0812C11.0246 19.4062 11.0246 18.7499 11.0246 18.0187C9.88086 18.0187 8.79336 18.0187 7.63086 18.0187C7.68711 16.9687 7.44336 15.9749 8.21211 15.0374C9.78711 13.1437 11.2309 11.1375 12.7121 9.1687C12.7309 9.1312 12.7496 9.07495 12.7871 8.9812C11.1934 8.9812 9.63711 8.9812 8.04336 8.9812C8.04336 7.98745 8.04336 7.0687 8.04336 6.07495C9.03711 6.07495 9.99336 6.07495 11.0059 6.07495Z" fill="white"/>
<defs>
<linearGradient id="paint0_linear" x1="2.22416" y1="2.22416" x2="21.7758" y2="21.7758" gradientUnits="userSpaceOnUse">
<stop stop-color="#FFD05B"/>
<stop offset="1" stop-color="#D08A29"/>
</linearGradient>
</defs>
</svg>
